<?xml version="1.0" encoding="utf-8"?>
<!-- Generator: Adobe Illustrator 23.0.0, SVG Export Plug-In . SVG Version: 6.00 Build 0)  -->
<svg version="1.1" xmlns="http://www.w3.org/2000/svg" xmlns:xlink="http://www.w3.org/1999/xlink" x="0px" y="0px"
	 viewBox="0 0 1200 800" style="enable-background:new 0 0 1200 800;" xml:space="preserve">
<style type="text/css">
	.st0{fill:url(#SVGID_1_);}
	.st1{fill:url(#SVGID_2_);}
	.st2{fill:#EBEBEB;}
	.st3{fill:#FFFFFF;}
	.st4{fill:url(#SVGID_3_);}
	.st5{fill:url(#SVGID_4_);}
	.st6{fill:url(#SVGID_5_);}
	.st7{fill:url(#SVGID_6_);}
	.st8{fill:url(#SVGID_7_);}
	.st9{fill:url(#SVGID_8_);}
	.st10{fill:url(#SVGID_9_);}
	.st11{filter:url(#Adobe_OpacityMaskFilter);}
	.st12{filter:url(#Adobe_OpacityMaskFilter_1_);}
	.st13{mask:url(#SVGID_10_);fill:url(#SVGID_11_);}
	.st14{fill:url(#SVGID_12_);}
	.st15{fill:url(#SVGID_13_);}
	.st16{fill:#F5F6F7;}
	.st17{filter:url(#Adobe_OpacityMaskFilter_2_);}
	.st18{filter:url(#Adobe_OpacityMaskFilter_3_);}
	.st19{mask:url(#SVGID_14_);fill:url(#SVGID_15_);}
	.st20{opacity:0.15;fill:url(#SVGID_16_);}
</style>
<g id="background">
</g>
<g id="shadow">
</g>
<g id="object">
	<g>
		<g>
			<g>
				<linearGradient id="SVGID_1_" gradientUnits="userSpaceOnUse" x1="496.804" y1="641.8514" x2="493.6868" y2="648.9764">
					<stop  offset="0" style="stop-color:#EFEFEF"/>
					<stop  offset="0.3139" style="stop-color:#E7E7E7"/>
					<stop  offset="0.447" style="stop-color:#E2E2E2"/>
				</linearGradient>
				<path class="st0" d="M1021.15,93.16H187.84c-14.93,0-27.04,11.94-27.04,26.67v557.4h3.87V116.02c0-1.18,0.09-2.34,0.27-3.47
					c0.06-0.38,0.12-0.75,0.2-1.12c0.08-0.37,0.16-0.74,0.26-1.1c0.1-0.36,0.2-0.73,0.31-1.08c0.96-3.04,2.54-5.8,4.6-8.14
					c0.24-0.28,0.49-0.55,0.75-0.81c0.12-0.13,0.25-0.26,0.39-0.39c1.18-1.16,2.48-2.2,3.89-3.09c0.47-0.3,0.95-0.58,1.44-0.84
					c0.49-0.26,0.99-0.51,1.5-0.74c0,0,0,0,0,0c0.34-0.15,0.69-0.29,1.03-0.43c0,0,0,0,0,0c2.62-1.02,5.48-1.58,8.47-1.58h833.31
					c3.98,0,7.74,1,11.01,2.75c0.49,0.26,0.97,0.55,1.44,0.84c0.62,0.4,1.23,0.82,1.81,1.27c0,0,0,0,0,0
					c0.29,0.23,0.58,0.46,0.85,0.7c0,0,0,0,0,0c0.42,0.36,0.82,0.73,1.22,1.12c0.13,0.13,0.26,0.26,0.39,0.39
					c0.26,0.26,0.51,0.53,0.75,0.81c3.52,4,5.64,9.22,5.64,14.91v561.21h3.92V118.16C1047.25,104.21,1035.51,93.16,1021.15,93.16z"
					/>
				<linearGradient id="SVGID_2_" gradientUnits="userSpaceOnUse" x1="604.4381" y1="119.8317" x2="604.4381" y2="89.3481">
					<stop  offset="0" style="stop-color:#EFEFEF"/>
					<stop  offset="0.3139" style="stop-color:#E7E7E7"/>
					<stop  offset="0.447" style="stop-color:#E2E2E2"/>
					<stop  offset="1" style="stop-color:#C5C5C5"/>
				</linearGradient>
				<path class="st1" d="M160.75,116.02c0-14.73,12.11-26.67,27.04-26.67h833.31c14.93,0,27.04,11.94,27.04,26.67v2.14
					c-0.88-13.95-12.62-24.99-26.98-24.99H187.84c-14.93,0-27.04,11.94-27.04,26.67L160.75,116.02z"/>
				<g>
					<rect x="164.67" y="661.62" class="st2" width="879.55" height="15.61"/>
					<path class="st3" d="M1044.21,116.14v545.48H164.67V116.14c0-12.64,10.37-22.93,23.12-22.93h833.31
						C1033.84,93.21,1044.21,103.5,1044.21,116.14z"/>
					<linearGradient id="SVGID_3_" gradientUnits="userSpaceOnUse" x1="160.8018" y1="677.9418" x2="1048.1293" y2="677.9418">
						<stop  offset="0" style="stop-color:#EFEFEF"/>
						<stop  offset="0.3139" style="stop-color:#E7E7E7"/>
						<stop  offset="0.447" style="stop-color:#E2E2E2"/>
						<stop  offset="1" style="stop-color:#C5C5C5"/>
					</linearGradient>
					<polygon class="st4" points="1048.13,677.23 1048.13,678.66 1044.21,678.66 1044.21,678.65 164.67,678.65 164.67,678.66 
						160.8,678.66 160.8,677.23 					"/>
				</g>
			</g>
			<g>
				<g>
					<g>
						<linearGradient id="SVGID_4_" gradientUnits="userSpaceOnUse" x1="52.5885" y1="687.7662" x2="600" y2="687.7662">
							<stop  offset="0" style="stop-color:#929292"/>
							<stop  offset="0.0139" style="stop-color:#C1C1C1"/>
							<stop  offset="0.0271" style="stop-color:#B2B2B2"/>
							<stop  offset="0.0487" style="stop-color:#9C9C9C"/>
							<stop  offset="0.0715" style="stop-color:#A4A4A4"/>
							<stop  offset="0.0909" style="stop-color:#AFAFAF"/>
							<stop  offset="1" style="stop-color:#CFCFCF"/>
						</linearGradient>
						<rect x="52.59" y="679.48" class="st5" width="547.41" height="16.57"/>
						<linearGradient id="SVGID_5_" gradientUnits="userSpaceOnUse" x1="52.5885" y1="679.0684" x2="1147.4115" y2="679.0684">
							<stop  offset="0" style="stop-color:#666666"/>
							<stop  offset="0.0139" style="stop-color:#D5D5D5"/>
							<stop  offset="0.0234" style="stop-color:#D2D2D2"/>
							<stop  offset="0.0909" style="stop-color:#BCBCBC"/>
							<stop  offset="0.9939" style="stop-color:#FFFFFF"/>
						</linearGradient>
						<rect x="52.59" y="678.66" class="st6" width="1094.82" height="0.83"/>
						<linearGradient id="SVGID_6_" gradientUnits="userSpaceOnUse" x1="600" y1="687.7662" x2="1147.4115" y2="687.7662">
							<stop  offset="0" style="stop-color:#CFCFCF"/>
							<stop  offset="0.9091" style="stop-color:#AFAFAF"/>
							<stop  offset="0.9285" style="stop-color:#A4A4A4"/>
							<stop  offset="0.9513" style="stop-color:#9C9C9C"/>
							<stop  offset="0.9729" style="stop-color:#B2B2B2"/>
							<stop  offset="0.9861" style="stop-color:#C1C1C1"/>
							<stop  offset="1" style="stop-color:#929292"/>
						</linearGradient>
						<rect x="600" y="679.48" class="st7" width="547.41" height="16.57"/>
					</g>
					<g>
						<linearGradient id="SVGID_7_" gradientUnits="userSpaceOnUse" x1="52.5885" y1="687.2769" x2="600" y2="687.2769">
							<stop  offset="0" style="stop-color:#666666"/>
							<stop  offset="0.0139" style="stop-color:#D5D5D5"/>
							<stop  offset="0.0234" style="stop-color:#D2D2D2"/>
							<stop  offset="0.0909" style="stop-color:#BCBCBC"/>
							<stop  offset="0.9939" style="stop-color:#FFFFFF"/>
						</linearGradient>
						<rect x="52.59" y="679.48" class="st8" width="547.41" height="15.59"/>
						<linearGradient id="SVGID_8_" gradientUnits="userSpaceOnUse" x1="600" y1="687.2769" x2="1147.4115" y2="687.2769">
							<stop  offset="0" style="stop-color:#F1F1F1"/>
							<stop  offset="0.9091" style="stop-color:#BCBCBC"/>
							<stop  offset="0.9133" style="stop-color:#B2B2B2"/>
							<stop  offset="0.9295" style="stop-color:#8E8E8E"/>
							<stop  offset="0.9428" style="stop-color:#787878"/>
							<stop  offset="0.9513" style="stop-color:#707070"/>
							<stop  offset="0.9603" style="stop-color:#868686"/>
							<stop  offset="0.9787" style="stop-color:#BDBDBD"/>
							<stop  offset="0.9861" style="stop-color:#D5D5D5"/>
							<stop  offset="1" style="stop-color:#666666"/>
						</linearGradient>
						<rect x="600" y="679.48" class="st9" width="547.41" height="15.59"/>
					</g>
					<linearGradient id="SVGID_9_" gradientUnits="userSpaceOnUse" x1="522.085" y1="685.003" x2="677.915" y2="685.003">
						<stop  offset="0" style="stop-color:#9F9F9F"/>
						<stop  offset="0.0395" style="stop-color:#ACACAC"/>
						<stop  offset="0.514" style="stop-color:#E5E5E5"/>
						<stop  offset="0.9628" style="stop-color:#ACACAC"/>
						<stop  offset="1" style="stop-color:#9F9F9F"/>
					</linearGradient>
					<path class="st10" d="M677.92,678.66c0,3.5-1.41,6.68-3.72,8.97c-2.29,2.29-5.46,3.72-8.97,3.72H534.76
						c-7,0-12.68-5.69-12.68-12.69H677.92z"/>
					<defs>
						<filter id="Adobe_OpacityMaskFilter" filterUnits="userSpaceOnUse" x="521.47" y="678.66" width="157.06" height="13.62">
							<feFlood  style="flood-color:white;flood-opacity:1" result="back"/>
							<feBlend  in="SourceGraphic" in2="back" mode="normal"/>
						</filter>
					</defs>
					<mask maskUnits="userSpaceOnUse" x="521.47" y="678.66" width="157.06" height="13.62" id="SVGID_10_">
						<g class="st11">
							<defs>
								
									<filter id="Adobe_OpacityMaskFilter_1_" filterUnits="userSpaceOnUse" x="521.47" y="678.66" width="157.06" height="13.62">
									<feFlood  style="flood-color:white;flood-opacity:1" result="back"/>
									<feBlend  in="SourceGraphic" in2="back" mode="normal"/>
								</filter>
							</defs>
							<mask maskUnits="userSpaceOnUse" x="521.47" y="678.66" width="157.06" height="13.62" id="SVGID_10_">
								<g class="st12">
								</g>
							</mask>
							<linearGradient id="SVGID_11_" gradientUnits="userSpaceOnUse" x1="521.4706" y1="685.4706" x2="678.5294" y2="685.4706">
								<stop  offset="4.122200e-04" style="stop-color:#CCCCCC"/>
								<stop  offset="0.5247" style="stop-color:#B3B3B3"/>
								<stop  offset="0.7671" style="stop-color:#B5B5B5"/>
								<stop  offset="0.891" style="stop-color:#BDBDBD"/>
								<stop  offset="0.988" style="stop-color:#CACACA"/>
								<stop  offset="1" style="stop-color:#CCCCCC"/>
							</linearGradient>
							<path class="st13" d="M677.92,678.66c0,3.5-1.41,6.68-3.72,8.97c-2.29,2.29-5.46,3.72-8.97,3.72H534.77
								c-7,0-12.68-5.69-12.68-12.69h-0.62v0.95c0,7,5.69,12.68,12.69,12.68h131.68c7.01,0,12.69-5.68,12.69-12.68v-0.95H677.92z"/>
						</g>
					</mask>
					<linearGradient id="SVGID_12_" gradientUnits="userSpaceOnUse" x1="521.4706" y1="685.4706" x2="678.5294" y2="685.4706">
						<stop  offset="4.122200e-04" style="stop-color:#F7F7F7"/>
						<stop  offset="0.5247" style="stop-color:#F8F8F8"/>
						<stop  offset="1" style="stop-color:#F7F7F7"/>
					</linearGradient>
					<path class="st14" d="M677.92,678.66c0,3.5-1.41,6.68-3.72,8.97c-2.29,2.29-5.46,3.72-8.97,3.72H534.77
						c-7,0-12.68-5.69-12.68-12.69h-0.62v0.95c0,7,5.69,12.68,12.69,12.68h131.68c7.01,0,12.69-5.68,12.69-12.68v-0.95H677.92z"/>
				</g>
				<linearGradient id="SVGID_13_" gradientUnits="userSpaceOnUse" x1="600" y1="710.6519" x2="600" y2="696.0507">
					<stop  offset="0" style="stop-color:#575757"/>
					<stop  offset="0.7389" style="stop-color:#B9B9B9"/>
					<stop  offset="0.8472" style="stop-color:#B6B6B6"/>
					<stop  offset="0.9363" style="stop-color:#ACACAC"/>
					<stop  offset="1" style="stop-color:#9F9F9F"/>
				</linearGradient>
				<path class="st15" d="M52.59,696.05c38.49,9.68,78.58,14.6,118.91,14.6H600h428.51c40.32,0,80.41-4.92,118.91-14.6H600H52.59z"
					/>
			</g>
		</g>
		<rect x="182.86" y="126.44" class="st16" width="843.15" height="521.69"/>
		<defs>
			<filter id="Adobe_OpacityMaskFilter_2_" filterUnits="userSpaceOnUse" x="327.96" y="89.35" width="720.17" height="589.31">
				<feFlood  style="flood-color:white;flood-opacity:1" result="back"/>
				<feBlend  in="SourceGraphic" in2="back" mode="normal"/>
			</filter>
		</defs>
		<mask maskUnits="userSpaceOnUse" x="327.96" y="89.35" width="720.17" height="589.31" id="SVGID_14_">
			<g class="st17">
				<defs>
					<filter id="Adobe_OpacityMaskFilter_3_" filterUnits="userSpaceOnUse" x="327.96" y="89.35" width="720.17" height="589.31">
						<feFlood  style="flood-color:white;flood-opacity:1" result="back"/>
						<feBlend  in="SourceGraphic" in2="back" mode="normal"/>
					</filter>
				</defs>
				<mask maskUnits="userSpaceOnUse" x="327.96" y="89.35" width="720.17" height="589.31" id="SVGID_14_">
					<g class="st18">
					</g>
				</mask>
				<linearGradient id="SVGID_15_" gradientUnits="userSpaceOnUse" x1="688.0459" y1="678.6553" x2="688.0459" y2="89.3491">
					<stop  offset="0" style="stop-color:#000000"/>
					<stop  offset="0.2797" style="stop-color:#020202"/>
					<stop  offset="0.4173" style="stop-color:#0A0A0A"/>
					<stop  offset="0.524" style="stop-color:#171717"/>
					<stop  offset="0.6147" style="stop-color:#2A2A2A"/>
					<stop  offset="0.6953" style="stop-color:#424242"/>
					<stop  offset="0.7688" style="stop-color:#606060"/>
					<stop  offset="0.8368" style="stop-color:#838383"/>
					<stop  offset="0.9006" style="stop-color:#ADADAD"/>
					<stop  offset="0.9586" style="stop-color:#DADADA"/>
					<stop  offset="1" style="stop-color:#FFFFFF"/>
				</linearGradient>
				<path class="st19" d="M1021.09,89.35h-95.65l-597.48,589.3h716.25v0h3.92V116.02C1048.13,101.29,1036.03,89.35,1021.09,89.35z
					 M1037.37,99.84c0.02,0.02,0.05,0.04,0.07,0.06c0.04,0.04,0.07,0.07,0.11,0.11L1037.37,99.84z"/>
			</g>
		</mask>
		<linearGradient id="SVGID_16_" gradientUnits="userSpaceOnUse" x1="687.9115" y1="703.1794" x2="691.0464" y2="130.9708">
			<stop  offset="0" style="stop-color:#000000"/>
			<stop  offset="0.3726" style="stop-color:#020202"/>
			<stop  offset="0.5069" style="stop-color:#090909"/>
			<stop  offset="0.6026" style="stop-color:#141414"/>
			<stop  offset="0.68" style="stop-color:#252525"/>
			<stop  offset="0.7463" style="stop-color:#3B3B3B"/>
			<stop  offset="0.805" style="stop-color:#575757"/>
			<stop  offset="0.8581" style="stop-color:#777777"/>
			<stop  offset="0.9069" style="stop-color:#9D9D9D"/>
			<stop  offset="0.9523" style="stop-color:#C8C8C8"/>
			<stop  offset="0.9926" style="stop-color:#F6F6F6"/>
			<stop  offset="1" style="stop-color:#FFFFFF"/>
		</linearGradient>
		<path class="st20" d="M1021.09,89.35h-95.65l-597.48,589.3h716.25v0h3.92V116.02C1048.13,101.29,1036.03,89.35,1021.09,89.35z
			 M1037.37,99.84c0.02,0.02,0.05,0.04,0.07,0.06c0.04,0.04,0.07,0.07,0.11,0.11L1037.37,99.84z"/>
	</g>
</g>
</svg>
