<?xml version="1.0" encoding="utf-8"?>
<!-- Generator: Adobe Illustrator 23.0.0, SVG Export Plug-In . SVG Version: 6.00 Build 0)  -->
<svg version="1.1" id="Layer_1" xmlns="http://www.w3.org/2000/svg" xmlns:xlink="http://www.w3.org/1999/xlink" x="0px" y="0px"
	 viewBox="0 0 300 300" style="enable-background:new 0 0 300 300;" xml:space="preserve">
<style type="text/css">
	.st0{fill:#FFFFFF;}
</style>
<g>
	<path class="st0" d="M150,8.22C71.22,8.22,7.13,72.31,7.13,151.09c0,61.27,38.78,113.65,93.07,133.91
		c-0.09-1.59,0.08-3.24,0.28-4.73c-51.9-19.96-88.84-70.34-88.84-129.18C11.65,74.8,73.71,12.74,150,12.74
		S288.35,74.8,288.35,151.09c0,58.6-36.63,108.8-88.19,128.93c0.14,1.57,0.41,3.12,0.49,4.65c53.85-20.49,92.22-72.64,92.22-133.58
		C292.87,72.31,228.78,8.22,150,8.22z"/>
	<path class="st0" d="M288.03,5.58c-2.21,0-4.05,1.48-4.64,3.5H157.94V2.5h-15.88v6.59H16.61c-0.59-2.02-2.43-3.5-4.64-3.5
		c-2.68,0-4.86,2.18-4.86,4.86c0,2.68,2.18,4.86,4.86,4.86c2.21,0,4.05-1.48,4.64-3.5h125.45v6.59h15.88V11.8h125.45
		c0.59,2.02,2.43,3.5,4.64,3.5c2.68,0,4.86-2.18,4.86-4.86C292.89,7.76,290.71,5.58,288.03,5.58z"/>
	<path class="st0" d="M221.29,245.3h-19.9c0.47-8.6,2.66-24.24,11.79-38.25c9.23-14.15,21.19-21.96,29.6-26.01l-1.16-2.4
		c-0.03-0.01-0.04-0.03-0.07-0.05L150,6.25L58.81,177.9c0,0,0,0-0.01,0L58.76,178l-0.54,1.01l0.04,0.02l-0.99,2.05
		c8.41,4.06,20.37,11.86,29.6,26.01c9.12,13.98,11.31,29.6,11.79,38.21H78.71c-1,0-1.81,0.81-1.81,1.81v4.29
		c0,1,0.81,1.81,1.81,1.81h19.68v44.29h4.52v-44.29h32.16v44.29h66.21v-44.29h20.02c1,0,1.81-0.81,1.81-1.81v-4.29
		C223.1,246.11,222.29,245.3,221.29,245.3z M196.87,245.3h-93.69c-0.47-9.02-2.76-25.69-12.53-40.67
		c-8.4-12.88-18.92-20.79-27.37-25.51l84.91-159.84v124.93c-5.75,0.87-10.17,5.83-10.17,11.83c0,6.61,5.36,11.98,11.98,11.98
		c6.61,0,11.98-5.36,11.98-11.98c0-6-4.41-10.95-10.17-11.83V19.28l84.91,159.83c-8.45,4.72-18.94,12.62-27.32,25.47
		C199.62,219.59,197.34,236.29,196.87,245.3z"/>
</g>
</svg>
