<?xml version="1.0" encoding="utf-8"?>
<!-- Generator: Adobe Illustrator 23.0.0, SVG Export Plug-In . SVG Version: 6.00 Build 0)  -->
<svg version="1.1" id="Layer_1" xmlns="http://www.w3.org/2000/svg" xmlns:xlink="http://www.w3.org/1999/xlink" x="0px" y="0px"
	 viewBox="0 0 1018 165" style="enable-background:new 0 0 1018 165;" xml:space="preserve">
<style type="text/css">
	.st0{fill:#0071BC;}
	.st1{fill:#0071BC;stroke:#0071BC;stroke-width:0.75;stroke-miterlimit:10;}
</style>
<g>
	<g>
		<path class="st0" d="M93.15,89.16c6.35,0.95,7.31-4.24,6.73-9.73C95.03,80.07,93.23,83.75,93.15,89.16z"/>
		<path class="st0" d="M50.77,74.85c0.03,0,0.06,0,0.1,0.01c0.72-1.14,1.44-2.28,2.16-3.41C52.15,72.47,51.39,73.61,50.77,74.85z"/>
		<path class="st0" d="M89,90.18c-1.15-0.56-4.37-0.79-5.3,0.14C84.63,91.63,88.26,91.71,89,90.18z"/>
		<path class="st0" d="M85.85,84.3c1.12,0.16,1.38-0.54,1.43-1.43c-0.53-0.39-1.48-0.35-1.85,0.14
			C85.35,83.66,85.71,83.87,85.85,84.3z"/>
		<path class="st0" d="M81.85,79.86c-0.66-0.44-1.06-1.14-1.72-1.58c-0.44,0.66-1.13,1.07-1.58,1.73
			C79.6,79.9,81.03,80.19,81.85,79.86z"/>
		<path class="st0" d="M133.81,57.39c-2.58,2.82-5.12,5.66-7.66,8.52c0.97,0.11,1.83,0.33,2.38,0.63c1.14,0.63,1.42,2.01,2.15,3
			c0.42,5.05,0.44,8.5-0.86,12.18c-1.89,5.39-3.78,10.32-2.86,17.83c6.35-10.94,12.54-21.99,18.67-33.05c0.71-1.24,1-2.51,0.97-3.73
			c0.01-2.28-0.97-4.53-2.91-5.98c-0.55-0.41-1.16-0.74-1.81-1c-2.32-1.1-5.09-1.06-7.39,0.93
			C134.26,56.94,134.02,57.15,133.81,57.39z"/>
		<path class="st0" d="M120.37,93.18c-0.22,2.81-1.48,3.96-1.58,7.45c0.53,0.33,1.67,0.05,2.43,0.14
			c0.06-8.21-1.12-16.65-1.14-25.92c0-0.56-0.02-1.24-0.04-1.96c-1.11,1.27-2.22,2.55-3.32,3.83
			C119.26,81.09,120.88,86.37,120.37,93.18z"/>
		<path class="st0" d="M69.53,69.68c1.83-1.38,6.23-2.46,9.02-1.71c1.77,0.47,3.16,2.3,4.44,3.58c1.36,1.35,2.88,3.24,4.73,3.29
			c0.18,0.01,0.34-0.01,0.5-0.03c1.38-1.54,2.78-3.08,4.18-4.61c0.96-1.55,2.37-3.77,1.91-5.38c-0.24-0.83-2.41-1.6-3.44-2.15
			c-2.26-1.21-5.52-3.44-5.44-6.73c0.04-1.99,1.72-3.13,1.71-5.31c-0.01-1.47-1.36-2.27-1.72-3.61c-1.87,1.52-3.74,3.05-5.59,4.6
			c-3.97,3.31-7.88,6.69-11.78,10.09c0,1.48,0.01,2.94,0.04,4.39c-1.88-0.15-3.6-0.1-5.19,0.13c-3.31,2.92-6.6,5.85-9.91,8.77
			c7.13,0.66,12.89,2.69,15.09,8.29c1.29-3.24,3.45-5.63,6.87-6.73c-0.71-2.53-4.09-2.4-7.3-2.43C67.64,72,68.21,70.68,69.53,69.68z
			"/>
		<path class="st0" d="M54.92,114.8c-3.04-0.52-2.5,3.44-0.72,3.45C55.8,118.26,56.07,115.76,54.92,114.8z"/>
		<path class="st0" d="M91.34,72c-0.84,0.88-1.67,1.76-2.5,2.65C89.96,74.23,90.68,73.14,91.34,72z"/>
		<path class="st0" d="M57.57,131.82c-5.66-4.37-10.7-9.38-10.96-19.17c2.72-0.09,4.14,1.11,5.87,2.01
			c-0.24-1.4-0.25-3.03,0.14-3.86c1.42-2.95,6.61-0.81,8.31,0.43c2.78-1.92,3.93-5.4,5.58-8.31c1.69-2.96,3.41-5.9,4.88-8.88
			c1.37-0.53,2.77-1.04,3.72-2.01c-0.1-0.62-0.56-0.87-0.72-1.42c-10.5-0.34-21.63-0.05-32.36-0.15c-1.32,3.29-0.74,7.11-0.72,10.88
			c0.01,1.28,0,2.57-0.03,3.87c2.22-1.9,4.4-3.86,6.61-5.77c0.69-0.6,1.38-1.21,2.08-1.81c-2.99,3.94-5.92,7.93-8.81,11.95
			c-0.31,8.62-1,17.46-0.99,25.99c-1.05,0-2.11,0-3.15,0c-0.16-6.51-0.23-13.1-0.27-19.74c-0.55,0.79-1.11,1.58-1.65,2.37
			c-6.41,9.33-12.51,18.88-18.32,28.6c-0.47,0.76-0.91,1.53-1.34,2.25c-0.64,0.98-0.98,2.02-1.06,3.06
			c-0.15,1.35,0.13,2.64,0.7,3.78c0.36,0.84,0.87,1.63,1.53,2.28c0.6,0.6,1.35,1.1,2.18,1.47c1.91,1.02,4.18,1.24,6.29,0.1
			c0.22-0.12,0.44-0.24,0.64-0.39c1.34-0.68,2.61-1.48,3.8-2.36c2.09-1.32,4.23-2.82,5.62-4.65C43.11,146,50.5,139.07,57.57,131.82z
			"/>
		<path class="st0" d="M60.37,128.92c-1.29,0.4-2.28,1.14-2.53,2.63C58.68,130.68,59.53,129.8,60.37,128.92z"/>
		<path class="st0" d="M147.09,136.51c-0.39-0.17-0.79-0.34-1.16-0.54c-0.07-0.04-0.45-0.32-0.7-0.5c-0.01-0.01-0.01-0.01-0.02-0.02
			c-0.04-0.06-0.09-0.16-0.19-0.29c-0.01-0.02-0.02-0.03-0.03-0.04c-0.1-0.32-0.2-0.64-0.29-0.96c-0.01-0.03-0.02-0.09-0.04-0.16
			c-0.03-0.29-0.11-0.88-0.11-0.94c-0.03-0.79-0.02-1.57,0.03-2.36c0.03-0.43,0.1-0.88,0.12-1.31c0.42-1.71,0.69-3.47,1.14-5.18
			c1.18-4.5-1.79-8.19-5.51-9.17c-0.01-2.4-1.25-4.9-3.02-6.22c-1.8-1.34-3.74-1.75-5.62-1.43c0.05,0.42,0.09,0.85,0.14,1.28
			c-1.12,0-2.23,0-3.35,0c-0.35,0.22-0.7,0.47-1.04,0.74c-4.15,3.35-8.27,6.75-12.36,10.17c1.41-2.33,2.81-4.66,4.21-7
			c0.78-1.3,1.56-2.61,2.33-3.92c-2.18,0-4.37,0-6.54,0c-0.34,5.73-0.06,12.08-0.15,18.03c2.18,0.27,4.82,0.15,7.59,0.15
			c2.38,0,6.25-0.59,7.45,0.29c1.4,1.01,0.97,5.41-0.28,6.29c-2.13,1.49-4.59-0.53-6.58-1.14c-1.54-0.47-3.6-0.49-5.16-0.15
			c-2.8,0.62-4.37,2.5-8.17,1.44c-1.43-0.41-2.66-1.39-4.43-1.58c-3.6-0.36-5.5,0.96-8.02,1.58c-1.22,0.3-2.82,0.71-4.01-0.14
			c-1.4-0.99-1.28-5.16-0.29-6.29c4.47-0.64,10.1-0.12,15.04-0.29c0-5.73,0-11.46,0-17.19c-7.08-1.06-14.9-3.56-20.19,0.58
			c-1.48,1.15-3.47,2.77-4.16,4.57c-0.97,2.58-1.02,6.91-1.29,10.03c-0.29,3.46-0.62,7.04-0.57,10.75c-1.05,0-2.11,0-3.15,0
			c-0.1-6.88-1.04-12.91-1.86-19.05c-2.17-0.58-2.43,1.19-3,2.15c-0.61,1.01-1.39,2.11-2.01,3.15c-1.23,2.03-2.28,4.9-4.44,5.87
			c-1.76,0.8-4.72,0.55-6.89,1.19c-4.28,8.71-8.06,17.67-11.36,26.79c-2.53,7,7.73,12.88,12.58,7.32
			c10.45-11.99,20.89-23.99,31.33-35.99c-4.29,7.15-8.53,14.33-12.67,21.57c-0.22,0.38-0.43,0.76-0.64,1.12
			c-0.7,1.02-1.03,2.21-1.05,3.42c-0.05,0.93,0.09,1.82,0.39,2.65c0.32,1.09,0.91,2.13,1.83,3.05c1.05,1.05,2.24,1.68,3.48,1.96
			c2.36,0.79,5.04,0.4,7.16-1.96c0.09-0.07,0.18-0.15,0.28-0.22c-0.08,0.11-0.05,0.08,0.04-0.04c1.45-1.15,2.98-2.28,4.34-3.56
			c2.86-2.35,5.71-4.72,8.54-7.11c0.35,5.81,7.51,10.07,12.69,5.09c4.48-4.3,8.96-8.61,13.43-12.91c1.36,4.03,4.02,7.44,8.64,9.43
			c3.73,1.6,8.07,1.11,10.29-2.7C151.64,143.63,150.84,138.12,147.09,136.51z M144.87,134.93
			C144.74,134.72,144.78,134.77,144.87,134.93L144.87,134.93z"/>
		<path class="st0" d="M47.33,66.26c-5.24-0.54-10.56-1-13.89-3.45c-0.25,5.09,2.97,7.63,3.86,11.61c0.17,0.73-0.07,1.42,0.58,2.15
			c1.29-0.11,1.92-1.35,2.73-2.15c1.7-1.7,3.35-3.2,5.01-4.87C46.42,68.74,47.71,67.8,47.33,66.26z"/>
		<path class="st0" d="M124.89,42.96c-7.94,5.25-15.23,11.24-22.12,17.67c0.83,1.79,4.82,5.16,5.85,6.2
			c2.58,2.58,5.24,5.39,7.38,8.74c0.46-0.48,0.92-0.96,1.39-1.43c0.86-0.87,1.74-1.73,2.62-2.58c-0.03-2.04,0.05-4.12,0.64-4.87
			c0.6-0.75,3.01-0.99,5.1-0.81c3.52-3.63,6.78-7.48,9.11-12.01c0.11-0.2,0.22-0.4,0.32-0.6c0.97-1.96,1.22-4.17,0.61-6.16
			c-0.33-1.07-0.91-2.09-1.79-2.96c-0.87-0.87-2.01-1.51-3.24-1.88C128.77,41.66,126.54,41.78,124.89,42.96z"/>
		<path class="st0" d="M18.37,95.15c0.08-0.03,0.17-0.07,0.25-0.11c0.1-0.05,0.2-0.09,0.29-0.14c0.12-0.06,0.25-0.13,0.37-0.2
			c0.07-0.04,0.15-0.09,0.22-0.13c0.12-0.08,0.24-0.16,0.36-0.24c0.08-0.06,0.16-0.11,0.24-0.17c0.09-0.07,0.18-0.14,0.27-0.22
			c0.1-0.09,0.21-0.17,0.31-0.26c0.04-0.04,0.08-0.08,0.12-0.11c0.47-0.45,0.9-0.95,1.26-1.51c0.48-0.73,0.96-1.44,1.43-2.16
			c1.59-2.35,3.25-4.64,4.97-6.89c-3.6,6.29-7.04,12.68-10.33,19.16c-0.47,0.82-0.87,1.68-1.29,2.53c-0.94,1.8-1.15,3.57-0.84,5.16
			c0.29,1.75,1.19,3.37,2.77,4.55c2.45,1.83,6.39,2.24,8.95,0.29c3.23-1.6,6.19-3.59,9.02-5.76c-0.01-6.01,0-12.03,0-18.05
			c-1.52-0.31-3.29-0.35-5.02-0.43c-0.39-3.5-0.82-6.62,0-9.74c0.94-3.54,2.57-6,1.58-10.03c-0.58-2.34-1.71-3.39-1.86-5.86
			C30.96,57.16,35,51.88,35,43.76c1.44-2.66,5.29-2.76,9.32-3.43c2.46-0.41,4.94-0.8,7.31-1.16c5.53-0.8,11.3-1.17,16.04-1.43
			c0.05,0,0.1,0,0.14,0c0.28,3.72,0.34,7.67,0.34,11.68c7.1-9.68,14.62-19.06,22.56-28.11c1.64-1.86,2.39-4.29,2.05-6.59
			c-0.22-1.47-0.87-2.88-2.05-4.05c-1.27-1.27-2.94-1.98-4.65-2.13c-2.16-0.19-4.4,0.51-6,2.13C73,17.84,65.57,24.66,58.13,31.46
			C62.3,26.12,66.61,20.91,71,15.83c0.96-1.06,1.89-2.15,2.82-3.23c1.67-1.82,2.39-4.26,2.05-6.56c-0.21-1.47-0.86-2.89-2.05-4.08
			c-1.26-1.26-3-1.99-4.78-2.14c-2.16-0.19-4.38,0.47-5.86,2.14c-1.08,1.17-2.16,2.33-3.22,3.51C42.57,24.37,24.44,43.04,3.34,57.25
			c-3.37,2.27-4.84,6.63-2.7,10.29c1.95,3.34,6.91,4.98,10.29,2.7c2.47-1.67,4.9-3.39,7.29-5.15C14.58,71.95,11.25,79,8.29,86.25
			c-0.74,1.81-0.34,3.84,0.65,5.53c0.58,1.17,1.49,2.19,2.81,2.96C13.89,96,16.29,96.03,18.37,95.15z"/>
		<path class="st0" d="M105.62,48.21c1.48,3.11,0.16,5.28-1.14,7.87c-0.55,1.1-1.4,2.21-1.73,3.2c0.83-0.85,1.65-1.7,2.49-2.54
			c8.51-8.6,17.34-16.87,26.44-24.84c0.38-0.33,0.7-0.68,0.98-1.04c2.09-2.73,1.47-6.24-0.48-8.74c-2.19-2.92-6.09-4.52-9.62-2.03
			c-1.11,0.72-2.2,1.49-3.27,2.27c-5.86,4.01-12.37,8.25-18.31,12.62c-3,2.21-5.97,4.47-8.9,6.77
			C97.79,40.65,103.71,44.2,105.62,48.21z"/>
	</g>
	<g>
		<g>
			<path class="st1" d="M584.55,111.32c-0.41,0.03-0.75,0.16-1.02,0.38c-0.27,0.22-0.52,0.5-0.73,0.83v11.43
				c0,0.42,0.11,0.78,0.34,1.07c0.15,0.23,0.34,0.42,0.57,0.58c0.23,0.16,0.49,0.27,0.8,0.33c0.03,0.03,0.04,0.05,0.02,0.07
				c-0.06,0.05-0.25,0.06-0.57,0.05c-1.95-0.08-3.46-0.08-4.52,0c-0.23,0.01-0.38-0.02-0.45-0.09c0.52-0.05,0.95-0.23,1.31-0.56
				s0.55-0.71,0.58-1.15v-11.03c0-0.3-0.06-0.57-0.18-0.8c-0.12-0.3-0.28-0.56-0.49-0.78c-0.2-0.22-0.43-0.33-0.67-0.33
				c0.12-0.03,0.98-0.05,2.57-0.06C583.69,111.26,584.51,111.28,584.55,111.32z"/>
			<path class="st1" d="M603.85,111.52c-0.39,0.06-0.7,0.26-0.92,0.6c-0.22,0.34-0.33,0.81-0.33,1.42l0.05,8.07
				c0,1.68,0.02,3.04,0.07,4.07c0,0.27-0.05,0.46-0.14,0.57h-0.2c-1.38-1.41-5.22-5.05-11.53-10.93l-0.07,6.93v1.73
				c0,0.61,0.11,1.08,0.33,1.42c0.22,0.34,0.53,0.54,0.92,0.6v0.02h-3.77v-0.02c0.39-0.06,0.7-0.26,0.92-0.6
				c0.22-0.34,0.33-0.81,0.33-1.42v-2l0.07-8.34c0-0.99-0.02-1.71-0.05-2.18h0.07l11.41,10.37c0.12,0.14,0.2,0.2,0.25,0.2
				c0.06,0,0.09-0.1,0.09-0.3l-0.02-8.18c0-0.61-0.11-1.08-0.33-1.42c-0.22-0.34-0.53-0.54-0.92-0.6v-0.02h3.77V111.52z"/>
			<path class="st1" d="M623.2,111.52c-0.39,0.06-0.7,0.26-0.92,0.6c-0.22,0.34-0.33,0.81-0.33,1.42l0.05,8.07
				c0,1.68,0.02,3.04,0.07,4.07c0,0.27-0.05,0.46-0.14,0.57h-0.2c-1.38-1.41-5.22-5.05-11.53-10.93l-0.07,6.93v1.73
				c0,0.61,0.11,1.08,0.33,1.42c0.22,0.34,0.53,0.54,0.92,0.6v0.02h-3.77v-0.02c0.39-0.06,0.7-0.26,0.92-0.6
				c0.22-0.34,0.33-0.81,0.33-1.42v-2l0.07-8.34c0-0.99-0.02-1.71-0.05-2.18h0.07l11.41,10.37c0.12,0.14,0.2,0.2,0.25,0.2
				c0.06,0,0.09-0.1,0.09-0.3l-0.02-8.18c0-0.61-0.11-1.08-0.33-1.42c-0.22-0.34-0.53-0.54-0.92-0.6v-0.02h3.77V111.52z"/>
			<path class="st1" d="M642.38,118.71c0,2.14-0.79,3.95-2.36,5.43c-1.56,1.47-3.43,2.21-5.61,2.21c-2.29,0-4.19-0.69-5.71-2.07
				c-1.56-1.41-2.34-3.24-2.34-5.5c0-2.17,0.79-3.99,2.36-5.48c1.56-1.45,3.46-2.18,5.68-2.18c2.27,0,4.17,0.71,5.68,2.14
				C641.62,114.68,642.38,116.5,642.38,118.71z M640.13,119.09c0-2.15-0.59-3.86-1.77-5.11c-1.12-1.2-2.61-1.8-4.48-1.8
				c-1.53,0-2.79,0.57-3.78,1.7c-0.99,1.14-1.49,2.61-1.49,4.43c0,2.18,0.58,3.9,1.73,5.16c1.12,1.21,2.64,1.82,4.55,1.82
				c1.55,0,2.81-0.57,3.79-1.72C639.65,122.44,640.13,120.94,640.13,119.09z"/>
			<path class="st1" d="M657.66,111.37h2.75l0.02,0.02c-0.35,0.06-0.62,0.23-0.82,0.51c-0.2,0.28-0.41,0.56-0.64,0.85
				c-0.23,0.27-0.75,1.29-1.56,3.06c-0.81,1.77-1.43,3.14-1.85,4.13c-1.11,2.71-2.06,5.14-2.86,7.27
				c-2.03-4.83-4.04-9.44-6.02-13.82c-0.23-0.61-0.52-1.08-0.86-1.41c-0.35-0.33-0.73-0.53-1.14-0.59v-0.02l3.52-0.02
				c0.65,1.71,2.23,5.46,4.73,11.25c0.06,0.12,0.13,0.18,0.2,0.18c0.06,0,0.12-0.06,0.18-0.18L657.66,111.37z"/>
			<path class="st1" d="M663.69,126.03h-2.75l-0.02-0.02c0.35-0.06,0.62-0.23,0.82-0.51c0.2-0.28,0.41-0.56,0.64-0.85
				c0.23-0.27,0.75-1.29,1.56-3.06c0.81-1.77,1.43-3.14,1.85-4.13c1.11-2.71,2.06-5.14,2.86-7.27c2.03,4.83,4.04,9.44,6.02,13.82
				c0.23,0.61,0.52,1.08,0.86,1.41c0.35,0.33,0.73,0.53,1.14,0.59v0.02l-3.52,0.02c-0.65-1.71-1.17-3.04-1.55-3.98h-6.48
				L663.69,126.03z M671.14,121c-0.05-0.11-0.98-2.37-2.8-6.8l-2.89,6.98h5.77L671.14,121z"/>
			<path class="st1" d="M690.62,111.46c-0.01,1.41-0.03,2.61-0.05,3.61h-0.09c-0.68-1.01-1.26-1.69-1.73-2.02
				c-0.59-0.42-1.61-0.64-3.05-0.64h-0.86c-0.27,0.03-0.42,0.09-0.45,0.18c-0.03,0.05-0.05,0.11-0.05,0.18l-0.02,11.18
				c0,0.42,0.11,0.78,0.34,1.07c0.15,0.23,0.34,0.42,0.57,0.58c0.23,0.16,0.49,0.27,0.8,0.33c0.03,0.03,0.04,0.05,0.02,0.07
				c-0.06,0.05-0.25,0.06-0.57,0.05c-1.95-0.08-3.46-0.08-4.52,0c-0.23,0.01-0.38-0.02-0.45-0.09c0.52-0.05,0.95-0.23,1.31-0.56
				c0.36-0.33,0.55-0.71,0.58-1.15l-0.02-11.48c0-0.15-0.08-0.27-0.23-0.34h-1.2c-1.44,0-2.46,0.21-3.05,0.64
				c-0.47,0.33-1.05,1.01-1.73,2.02h-0.09c-0.02-1-0.03-2.21-0.05-3.61l6.25,0.02L690.62,111.46z"/>
			<path class="st1" d="M698.62,111.32c-0.41,0.03-0.75,0.16-1.02,0.38c-0.27,0.22-0.52,0.5-0.73,0.83v11.43
				c0,0.42,0.11,0.78,0.34,1.07c0.15,0.23,0.34,0.42,0.57,0.58c0.23,0.16,0.49,0.27,0.8,0.33c0.03,0.03,0.04,0.05,0.02,0.07
				c-0.06,0.05-0.25,0.06-0.57,0.05c-1.95-0.08-3.46-0.08-4.52,0c-0.23,0.01-0.38-0.02-0.45-0.09c0.52-0.05,0.95-0.23,1.31-0.56
				s0.55-0.71,0.58-1.15v-11.03c0-0.3-0.06-0.57-0.18-0.8c-0.12-0.3-0.28-0.56-0.49-0.78c-0.2-0.22-0.43-0.33-0.67-0.33
				c0.12-0.03,0.98-0.05,2.57-0.06S698.58,111.28,698.62,111.32z"/>
			<path class="st1" d="M714.24,111.37h2.75l0.02,0.02c-0.35,0.06-0.62,0.23-0.82,0.51c-0.2,0.28-0.41,0.56-0.64,0.85
				c-0.23,0.27-0.75,1.29-1.56,3.06c-0.81,1.77-1.43,3.14-1.85,4.13c-1.11,2.71-2.06,5.14-2.86,7.27
				c-2.03-4.83-4.04-9.44-6.02-13.82c-0.23-0.61-0.52-1.08-0.86-1.41c-0.35-0.33-0.73-0.53-1.14-0.59v-0.02l3.52-0.02
				c0.65,1.71,2.23,5.46,4.73,11.25c0.06,0.12,0.13,0.18,0.2,0.18c0.06,0,0.12-0.06,0.18-0.18L714.24,111.37z"/>
			<path class="st1" d="M730.93,126.07c-0.11,0.01-0.27,0.02-0.48,0.02c-1.15-0.06-2.62-0.09-4.41-0.09c-1.3,0-3.05,0.01-5.25,0.02
				v-0.02c0.39-0.06,0.7-0.26,0.92-0.6c0.22-0.34,0.33-0.81,0.33-1.42l0.02-10.37h-0.02v-0.02c0-0.61-0.11-1.08-0.33-1.42
				c-0.22-0.34-0.53-0.54-0.92-0.6v-0.02l4.16-0.02c1.12,0,2.16-0.01,3.11-0.05h0.16c0.67-0.01,1.29-0.05,1.86-0.09
				c0.48-0.03,0.73,0,0.73,0.09v0.36l0.02,1.98h-0.02c-0.03-0.2-0.11-0.37-0.23-0.52c-0.12-0.15-0.32-0.28-0.59-0.4
				c-0.27-0.11-0.64-0.2-1.09-0.27c-0.45-0.07-1.04-0.12-1.75-0.15c-0.64-0.01-1.52-0.02-2.64-0.02c-0.24,0-0.4,0.04-0.48,0.11
				c-0.03,0.05-0.05,0.16-0.05,0.34v4.64c0,0.18,0.11,0.27,0.32,0.27c0.39,0,1.83,0.01,4.3,0.02c0.61,0,1.05-0.14,1.32-0.42
				c0.27-0.28,0.44-0.62,0.5-1.01h0.02c-0.01,0.59-0.01,1.81,0.02,3.66h-0.02c-0.06-0.39-0.26-0.7-0.6-0.92
				c-0.34-0.22-0.81-0.33-1.42-0.33c-0.95-0.06-2.36-0.08-4.23-0.07c-0.14,0-0.2,0.05-0.2,0.16v4.84c0,0.68,0.4,1.11,1.2,1.27
				c0.2,0.03,0.89,0.05,2.07,0.05c0.55,0,1.03-0.05,1.46-0.16c0.91-0.26,1.58-0.54,2.01-0.85c0.43-0.31,0.71-0.66,0.83-1.06
				l0.02,0.02l-0.45,2.93l-0.02,0.14L730.93,126.07z"/>
			<path class="st1" d="M752.91,115.14c0.52,1.71,1.18,3.86,2,6.46l2.86-10.16l2.07,0.02c-0.14,0.24-0.25,0.46-0.34,0.65
				c-0.09,0.19-0.19,0.38-0.3,0.56c-0.03,0.08-0.06,0.14-0.08,0.2c-0.02,0.06-0.05,0.11-0.08,0.16c-0.18,0.27-0.53,1.2-1.05,2.8
				c-0.26,0.77-0.49,1.49-0.7,2.14c-0.21,0.65-0.39,1.2-0.52,1.64c-0.18,0.61-0.37,1.25-0.56,1.92c-0.19,0.67-0.38,1.34-0.57,2
				c-0.19,0.66-0.37,1.3-0.55,1.91c-0.17,0.61-0.32,1.16-0.44,1.63c-0.33-1.09-0.68-2.21-1.03-3.36c-0.36-1.15-0.71-2.3-1.07-3.43
				c-0.36-1.14-0.71-2.25-1.07-3.35c-0.36-1.1-0.7-2.15-1.03-3.15c-0.09,0.24-0.19,0.53-0.31,0.85c-0.11,0.33-0.24,0.71-0.38,1.15
				c-0.26,0.77-0.49,1.49-0.7,2.14c-0.21,0.65-0.39,1.2-0.52,1.64c-0.18,0.61-0.37,1.25-0.56,1.92c-0.19,0.67-0.38,1.34-0.57,2
				c-0.19,0.66-0.37,1.3-0.55,1.91c-0.17,0.61-0.32,1.16-0.44,1.63c-0.35-1.11-0.7-2.24-1.06-3.41c-0.36-1.17-0.72-2.33-1.08-3.49
				s-0.72-2.3-1.08-3.41c-0.36-1.11-0.7-2.17-1.03-3.17c-0.14-0.53-0.31-0.95-0.52-1.27c-0.21-0.32-0.42-0.61-0.64-0.86l2.59-0.02
				c0.2,0.77,0.55,2.02,1.07,3.73c0.52,1.71,1.18,3.86,2,6.46l2.71-9.59c0.01-0.05,0.03-0.11,0.06-0.19
				c0.02-0.08,0.05-0.19,0.08-0.31l0.02-0.07l2.07,0.02c0,0.02-0.01,0.02-0.02,0.02h0.25C752.04,112.18,752.39,113.43,752.91,115.14
				z"/>
			<path class="st1" d="M772.87,126.07c-0.11,0.01-0.27,0.02-0.48,0.02c-1.15-0.06-2.62-0.09-4.41-0.09c-1.3,0-3.05,0.01-5.25,0.02
				v-0.02c0.39-0.06,0.7-0.26,0.92-0.6c0.22-0.34,0.33-0.81,0.33-1.42l0.02-10.37h-0.02v-0.02c0-0.61-0.11-1.08-0.33-1.42
				c-0.22-0.34-0.53-0.54-0.92-0.6v-0.02l4.16-0.02c1.12,0,2.16-0.01,3.11-0.05h0.16c0.67-0.01,1.29-0.05,1.86-0.09
				c0.48-0.03,0.73,0,0.73,0.09v0.36l0.02,1.98h-0.02c-0.03-0.2-0.11-0.37-0.23-0.52c-0.12-0.15-0.32-0.28-0.59-0.4
				c-0.27-0.11-0.64-0.2-1.09-0.27c-0.45-0.07-1.04-0.12-1.75-0.15c-0.64-0.01-1.52-0.02-2.64-0.02c-0.24,0-0.4,0.04-0.48,0.11
				c-0.03,0.05-0.05,0.16-0.05,0.34v4.64c0,0.18,0.11,0.27,0.32,0.27c0.39,0,1.83,0.01,4.3,0.02c0.61,0,1.05-0.14,1.32-0.42
				c0.27-0.28,0.44-0.62,0.5-1.01h0.02c-0.01,0.59-0.01,1.81,0.02,3.66h-0.02c-0.06-0.39-0.26-0.7-0.6-0.92
				c-0.34-0.22-0.81-0.33-1.42-0.33c-0.95-0.06-2.36-0.08-4.23-0.07c-0.14,0-0.2,0.05-0.2,0.16v4.84c0,0.68,0.4,1.11,1.2,1.27
				c0.2,0.03,0.89,0.05,2.07,0.05c0.55,0,1.03-0.05,1.46-0.16c0.91-0.26,1.58-0.54,2.01-0.85c0.43-0.31,0.71-0.66,0.83-1.06
				l0.02,0.02l-0.45,2.93l-0.02,0.14L772.87,126.07z"/>
			<path class="st1" d="M787.85,121.91c0,1.42-0.55,2.49-1.66,3.21c-0.7,0.47-1.59,0.77-2.68,0.91h-4.77l-1.98,0.02v-0.02
				c0.39-0.06,0.7-0.26,0.92-0.6c0.22-0.34,0.33-0.81,0.33-1.42l0.02-10.39H778v-0.02c0-0.61-0.11-1.08-0.33-1.42
				c-0.22-0.34-0.53-0.54-0.92-0.6v-0.02l5.68-0.05c1.24,0.05,2.23,0.3,2.96,0.77c0.89,0.58,1.34,1.43,1.34,2.57
				c0,1.5-0.92,2.55-2.75,3.14c-0.21,0.06-0.2,0.11,0.02,0.16C786.57,118.58,787.85,119.84,787.85,121.91z M784.48,115.03
				c0-0.97-0.25-1.67-0.75-2.09c-0.49-0.44-1.27-0.66-2.34-0.66c-0.86,0-1.33,0.13-1.39,0.39c-0.02,0.06-0.02,0.14-0.02,0.23v4.82
				h0.98c1.23,0,2.12-0.21,2.68-0.62C784.2,116.67,784.48,115.98,784.48,115.03z M785.57,122.16c0-1.23-0.41-2.15-1.23-2.77
				c-0.7-0.53-1.61-0.8-2.75-0.8c-0.67,0-1.2,0.04-1.61,0.11v5.5c0,0.71,0.73,1.07,2.21,1.07
				C784.45,125.28,785.57,124.24,785.57,122.16z"/>
			<path class="st1" d="M805.51,126.03c-0.43-0.43-0.84-0.86-1.43-1.5c-1.32,1.23-2.8,1.75-4.48,1.75c-2.98,0-4.71-2-4.71-4.3
				c0-2.09,1.25-3.52,3-4.48v-0.07c-0.8-1-1.27-2.11-1.27-3.21c0-1.86,1.34-3.77,3.89-3.77c1.91,0,3.39,1.27,3.39,3.25
				c0,1.61-0.93,2.89-3.36,4.09v0.07c1.3,1.5,2.75,3.18,3.73,4.27c0.7-1.07,1.18-2.55,1.48-4.48h1.82
				c-0.41,2.41-1.07,4.32-2.21,5.66c0.82,0.86,1.61,1.73,2.52,2.71H805.51z M799.96,124.78c1.3,0,2.41-0.59,3.14-1.39
				c-0.91-1-2.61-2.86-4.32-4.82c-0.82,0.52-1.98,1.5-1.98,3.11c0,1.75,1.3,3.09,3.14,3.09H799.96z M800.35,111.82
				c-1.25,0-1.91,1.05-1.91,2.23c0,1.09,0.5,1.93,1.16,2.75c1.55-0.89,2.55-1.7,2.55-3c0-0.93-0.52-1.98-1.77-1.98H800.35z"/>
			<path class="st1" d="M828.66,119.72c-0.22,0.34-0.33,0.81-0.33,1.42v2.98c0,0.44-0.57,0.91-1.7,1.41
				c-1.29,0.55-2.73,0.82-4.32,0.82c-2.32,0-4.25-0.69-5.8-2.07c-1.58-1.41-2.36-3.21-2.36-5.41v-0.16
				c0.03-2.17,0.84-3.98,2.43-5.43c1.56-1.44,3.45-2.16,5.66-2.16c1.58,0,2.89,0.19,3.96,0.57c0.64,0.23,1.07,0.45,1.3,0.66
				l0.11,0.11c0.03,0.06,0.05,0.11,0.07,0.16c0.08,0.56,0.11,1.18,0.11,1.86c0,0.68-0.03,1.05-0.09,1.09h-0.05
				c-0.03-0.18-0.11-0.4-0.23-0.66c-0.12-0.26-0.31-0.52-0.56-0.8c-0.25-0.27-0.56-0.55-0.94-0.83c-0.38-0.28-0.84-0.54-1.39-0.78
				c-0.61-0.27-1.39-0.41-2.36-0.41c-1.64,0-2.98,0.55-4.02,1.64c-1.12,1.18-1.68,2.8-1.68,4.86v0.14c0.01,1.97,0.61,3.56,1.77,4.77
				c1.15,1.21,2.63,1.82,4.43,1.82c0.92,0,1.79-0.17,2.59-0.5c0.76-0.32,1.14-0.64,1.14-0.95l-0.05-2.73c0-0.61-0.11-1.08-0.33-1.42
				c-0.22-0.34-0.53-0.54-0.92-0.6v-0.02h4.48v0.02C829.19,119.18,828.88,119.38,828.66,119.72z"/>
			<path class="st1" d="M837.43,126.05h-0.02l-1.98-0.02h-0.5l-1.98,0.02v-0.02c0.7-0.09,1.11-0.62,1.23-1.59v-0.09
				c0.01-0.08,0.02-0.19,0.02-0.34l0.02-10.39h-0.02v-0.02c0-0.61-0.11-1.08-0.33-1.42c-0.22-0.34-0.53-0.54-0.92-0.6v-0.02
				l5.68-0.05c1.24,0.05,2.23,0.3,2.95,0.77c0.89,0.58,1.34,1.43,1.34,2.57c0,1.5-0.94,2.79-2.82,3.86
				c-0.21,0.06-0.36,0.14-0.43,0.23c2.95,4.29,5.81,6.62,8.57,6.98l0.77,0.14l-3.64,0.02c-1.49,0.01-2.78-0.63-3.89-1.93
				c-1.55-2-2.83-3.61-3.84-4.82c-0.67,0-1.18,0.04-1.55,0.11l0.07,4.57c0,0.61,0.11,1.08,0.33,1.42c0.22,0.34,0.53,0.54,0.92,0.6
				V126.05z M840.68,115.03c0-0.97-0.25-1.67-0.75-2.09c-0.49-0.44-1.27-0.66-2.34-0.66c-0.86,0-1.33,0.13-1.39,0.39
				c-0.01,0.06-0.02,0.14-0.02,0.23l-0.07,5.55h0.91c1.27,0,2.2-0.33,2.78-0.99C840.38,116.79,840.68,115.98,840.68,115.03z"/>
			<path class="st1" d="M850.34,126.03h-2.75l-0.02-0.02c0.35-0.06,0.62-0.23,0.82-0.51c0.2-0.28,0.41-0.56,0.64-0.85
				c0.23-0.27,0.75-1.29,1.56-3.06c0.81-1.77,1.43-3.14,1.85-4.13c1.11-2.71,2.06-5.14,2.86-7.27c2.03,4.83,4.04,9.44,6.02,13.82
				c0.23,0.61,0.52,1.08,0.86,1.41c0.35,0.33,0.73,0.53,1.14,0.59v0.02l-3.52,0.02c-0.65-1.71-1.17-3.04-1.55-3.98h-6.48
				L850.34,126.03z M857.79,121c-0.05-0.11-0.98-2.37-2.8-6.8l-2.89,6.98h5.77L857.79,121z"/>
			<path class="st1" d="M868.11,126.05l-1.98-0.02h-0.5l-1.98,0.02v-0.02c0.7-0.09,1.11-0.62,1.23-1.59v-0.09
				c0.01-0.08,0.02-0.19,0.02-0.34l0.02-10.39h-0.02v-0.02c0-0.61-0.11-1.08-0.33-1.42c-0.22-0.34-0.53-0.54-0.92-0.6v-0.02
				l5.68-0.05c1.24,0.05,2.23,0.3,2.95,0.77c0.89,0.58,1.34,1.43,1.34,2.57c0,1.5-0.94,2.79-2.82,3.86
				c-0.06,0.06-0.14,0.11-0.24,0.16c-0.1,0.05-0.2,0.09-0.31,0.13c-0.11,0.04-0.2,0.07-0.3,0.1c-0.09,0.03-0.16,0.05-0.2,0.07
				c-0.09,0.03-0.23,0.06-0.41,0.09c-0.18,0.03-0.52,0.06-1,0.09c-0.67-0.01-1.18,0.02-1.55,0.09l0.07,4.57
				c0,0.61,0.11,1.08,0.33,1.42c0.22,0.34,0.53,0.54,0.92,0.6v0.02H868.11z M871.36,114.96v-0.02c0-0.47-0.07-0.88-0.2-1.24
				c-0.14-0.36-0.31-0.59-0.52-0.72v-0.05c-0.49-0.44-1.27-0.66-2.34-0.66c-0.86,0-1.33,0.13-1.39,0.39
				c-0.01,0.06-0.02,0.14-0.02,0.23l-0.07,5.55h0.91c0.5,0,0.95-0.05,1.36-0.16c0.01,0,0.03,0,0.03-0.01
				c0.01-0.01,0.02-0.01,0.03-0.01c0.56-0.15,1.01-0.42,1.34-0.8c0.59-0.67,0.89-1.48,0.89-2.43L871.36,114.96z"/>
			<path class="st1" d="M892.89,126.03l-1.98-0.02h-0.39c-0.61,0-1.31,0.01-2.11,0.02v-0.02c0.39-0.06,0.7-0.26,0.92-0.6
				c0.22-0.34,0.33-0.81,0.33-1.42l-0.02-4.14c0-0.32-0.04-0.53-0.11-0.64c-0.08-0.11-0.25-0.16-0.52-0.16h-7.84
				c-0.33,0-0.54,0.04-0.61,0.13c-0.08,0.08-0.11,0.29-0.11,0.62l0.02,4.18c0,0.61,0.11,1.08,0.33,1.42
				c0.22,0.34,0.53,0.54,0.92,0.6v0.02l-1.98-0.02h-0.39c-0.61,0-1.31,0.01-2.11,0.02v-0.02c0.39-0.06,0.7-0.26,0.92-0.6
				c0.22-0.34,0.33-0.81,0.33-1.42v-10.3h-0.02v-0.02c0-0.61-0.11-1.08-0.33-1.42c-0.22-0.34-0.53-0.54-0.92-0.6v-0.02h4.52v0.02
				c-0.39,0.06-0.7,0.28-0.92,0.67c-0.22,0.39-0.34,1.03-0.38,1.94v2.89c0,0.52,0.25,0.77,0.75,0.77h7.73c0.3,0,0.49-0.03,0.57-0.09
				c0.11-0.11,0.16-0.35,0.16-0.73l0.02-3.43h-0.02v-0.02c0-0.61-0.11-1.08-0.33-1.42c-0.22-0.34-0.53-0.54-0.92-0.6v-0.02h4.52
				v0.02c-0.39,0.06-0.7,0.28-0.92,0.67c-0.22,0.39-0.34,1.03-0.38,1.94v6.52l0.02,3.23c0,0.61,0.11,1.08,0.33,1.42
				c0.22,0.34,0.53,0.54,0.92,0.6V126.03z"/>
			<path class="st1" d="M901.98,111.32c-0.41,0.03-0.75,0.16-1.02,0.38c-0.27,0.22-0.52,0.5-0.73,0.83v11.43
				c0,0.42,0.11,0.78,0.34,1.07c0.15,0.23,0.34,0.42,0.57,0.58c0.23,0.16,0.49,0.27,0.8,0.33c0.03,0.03,0.04,0.05,0.02,0.07
				c-0.06,0.05-0.25,0.06-0.57,0.05c-1.95-0.08-3.46-0.08-4.52,0c-0.23,0.01-0.38-0.02-0.45-0.09c0.52-0.05,0.95-0.23,1.31-0.56
				s0.55-0.71,0.58-1.15v-11.03c0-0.3-0.06-0.57-0.18-0.8c-0.12-0.3-0.28-0.56-0.49-0.78c-0.2-0.22-0.43-0.33-0.67-0.33
				c0.12-0.03,0.98-0.05,2.57-0.06S901.94,111.28,901.98,111.32z"/>
			<path class="st1" d="M918.65,121.87c0.06,0.05,0.09,0.41,0.09,1.09c0,0.68-0.04,1.3-0.11,1.86c-0.02,0.05-0.04,0.1-0.07,0.16
				l-0.11,0.11c-0.23,0.21-0.66,0.43-1.3,0.66c-1.06,0.38-2.38,0.57-3.96,0.57c-2.21,0-4.1-0.72-5.66-2.16
				c-1.59-1.44-2.4-3.25-2.43-5.43v-0.02c0.03-2.17,0.84-3.98,2.43-5.43c1.56-1.44,3.45-2.16,5.66-2.16c1.58,0,2.89,0.19,3.96,0.57
				c0.64,0.23,1.07,0.45,1.3,0.66l0.11,0.11c0.03,0.06,0.05,0.11,0.07,0.16c0.08,0.56,0.11,1.18,0.11,1.86
				c0,0.68-0.03,1.05-0.09,1.09h-0.05c-0.03-0.18-0.11-0.4-0.23-0.66c-0.12-0.26-0.31-0.52-0.56-0.8c-0.25-0.27-0.56-0.55-0.94-0.83
				c-0.38-0.28-0.84-0.54-1.39-0.78c-0.61-0.27-1.39-0.41-2.36-0.41c-1.64,0-2.98,0.55-4.02,1.64c-1.12,1.18-1.68,2.8-1.68,4.86
				v0.11v0.02v0.11c0,2.06,0.56,3.68,1.68,4.87c1.05,1.09,2.39,1.64,4.02,1.64c0.97,0,1.76-0.14,2.36-0.41
				c0.55-0.24,1.01-0.5,1.39-0.78c0.38-0.28,0.69-0.56,0.94-0.83c0.25-0.27,0.44-0.54,0.56-0.8c0.12-0.26,0.2-0.48,0.23-0.66H918.65
				z"/>
			<path class="st1" d="M929.79,126.01c0.39-0.06,0.7-0.26,0.92-0.6c0.22-0.34,0.33-0.81,0.33-1.42l0.05-10.41h-0.02v-0.02
				c0-0.61-0.11-1.08-0.33-1.42c-0.22-0.34-0.53-0.54-0.92-0.6v-0.02c2.56-0.08,4.71-0.11,6.43-0.11c2.56,0,4.61,0.61,6.16,1.84
				c1.61,1.27,2.41,3.02,2.41,5.23c0,2.58-0.85,4.53-2.55,5.87c-1.59,1.23-3.63,1.8-6.11,1.73c-0.58,0-2.7-0.01-6.37-0.02V126.01z
				 M933.1,123.3c0,0.73,0.19,1.21,0.58,1.46c0.39,0.24,1.16,0.36,2.31,0.36c4.33,0,6.5-2.12,6.5-6.37c0-4.29-2.2-6.43-6.61-6.43
				h-1.55c-0.82,0.08-1.23,0.3-1.23,0.68V123.3z"/>
			<path class="st1" d="M958.31,126.07c-0.11,0.01-0.27,0.02-0.48,0.02c-1.15-0.06-2.62-0.09-4.41-0.09c-1.3,0-3.05,0.01-5.25,0.02
				v-0.02c0.39-0.06,0.7-0.26,0.92-0.6c0.22-0.34,0.33-0.81,0.33-1.42l0.02-10.37h-0.02v-0.02c0-0.61-0.11-1.08-0.33-1.42
				c-0.22-0.34-0.53-0.54-0.92-0.6v-0.02l4.16-0.02c1.12,0,2.16-0.01,3.11-0.05h0.16c0.67-0.01,1.29-0.05,1.86-0.09
				c0.48-0.03,0.73,0,0.73,0.09v0.36l0.02,1.98h-0.02c-0.03-0.2-0.11-0.37-0.23-0.52c-0.12-0.15-0.32-0.28-0.59-0.4
				c-0.27-0.11-0.64-0.2-1.09-0.27c-0.45-0.07-1.04-0.12-1.75-0.15c-0.64-0.01-1.52-0.02-2.64-0.02c-0.24,0-0.4,0.04-0.48,0.11
				c-0.03,0.05-0.05,0.16-0.05,0.34v4.64c0,0.18,0.11,0.27,0.32,0.27c0.39,0,1.83,0.01,4.3,0.02c0.61,0,1.05-0.14,1.32-0.42
				c0.27-0.28,0.44-0.62,0.5-1.01h0.02c-0.01,0.59-0.01,1.81,0.02,3.66h-0.02c-0.06-0.39-0.26-0.7-0.6-0.92
				c-0.34-0.22-0.81-0.33-1.42-0.33c-0.95-0.06-2.36-0.08-4.23-0.07c-0.14,0-0.2,0.05-0.2,0.16v4.84c0,0.68,0.4,1.11,1.2,1.27
				c0.2,0.03,0.89,0.05,2.07,0.05c0.55,0,1.03-0.05,1.46-0.16c0.91-0.26,1.58-0.54,2.01-0.85c0.43-0.31,0.71-0.66,0.83-1.06
				l0.02,0.02l-0.45,2.93l-0.02,0.14L958.31,126.07z"/>
			<path class="st1" d="M970.09,120c0.67,0.7,1.02,1.47,1.07,2.32c0.03,0.26,0.01,0.57-0.06,0.94c-0.07,0.37-0.21,0.72-0.42,1.03
				c-0.21,0.33-0.46,0.65-0.75,0.95c-0.29,0.3-0.54,0.49-0.75,0.57c-0.94,0.5-2.14,0.69-3.59,0.57c-1.79-0.15-2.95-0.51-3.5-1.07
				v-2.91c0.03,0.03,0.06,0.07,0.09,0.11c0.56,0.99,1.14,1.7,1.75,2.14c0.62,0.46,1.34,0.71,2.16,0.77
				c1.53,0.14,2.52-0.22,2.98-1.07c0.01-0.06,0.05-0.15,0.11-0.27c0.09-0.24,0.14-0.52,0.16-0.84c0.03-0.65-0.17-1.22-0.59-1.7
				c-0.42-0.47-1.3-1.14-2.61-2c-1.67-1.09-2.77-1.92-3.32-2.5c-0.62-0.71-0.9-1.56-0.84-2.55c0.06-1.03,0.54-1.87,1.44-2.51
				c0.9-0.64,2.03-0.91,3.38-0.81c0.95,0.09,1.8,0.29,2.55,0.59c0.7,0.29,1.02,0.55,0.98,0.77c0.01,0.14,0.03,0.99,0.05,2.57
				c0.09,0.15-0.06-0.07-0.44-0.66c-0.39-0.59-0.86-1.11-1.42-1.55c-0.52-0.41-1.21-0.64-2.09-0.7c-0.77-0.06-1.4,0.07-1.88,0.39
				c-0.48,0.32-0.74,0.81-0.78,1.48c-0.03,0.62,0.17,1.18,0.59,1.68c0.39,0.45,1.14,1.02,2.25,1.7
				C968.29,118.47,969.45,119.32,970.09,120z"/>
			<path class="st1" d="M980.61,111.32c-0.41,0.03-0.75,0.16-1.02,0.38c-0.27,0.22-0.52,0.5-0.73,0.83v11.43
				c0,0.42,0.11,0.78,0.34,1.07c0.15,0.23,0.34,0.42,0.57,0.58c0.23,0.16,0.49,0.27,0.8,0.33c0.03,0.03,0.04,0.05,0.02,0.07
				c-0.06,0.05-0.25,0.06-0.57,0.05c-1.95-0.08-3.46-0.08-4.52,0c-0.23,0.01-0.38-0.02-0.45-0.09c0.52-0.05,0.95-0.23,1.31-0.56
				c0.36-0.33,0.55-0.71,0.58-1.15v-11.03c0-0.3-0.06-0.57-0.18-0.8c-0.12-0.3-0.28-0.56-0.49-0.78s-0.43-0.33-0.67-0.33
				c0.12-0.03,0.98-0.05,2.57-0.06C979.75,111.26,980.57,111.28,980.61,111.32z"/>
			<path class="st1" d="M998.24,119.72c-0.22,0.34-0.33,0.81-0.33,1.42v2.98c0,0.44-0.57,0.91-1.7,1.41
				c-1.29,0.55-2.73,0.82-4.32,0.82c-2.32,0-4.25-0.69-5.8-2.07c-1.58-1.41-2.36-3.21-2.36-5.41v-0.16
				c0.03-2.17,0.84-3.98,2.43-5.43c1.56-1.44,3.45-2.16,5.66-2.16c1.58,0,2.89,0.19,3.96,0.57c0.64,0.23,1.07,0.45,1.3,0.66
				l0.11,0.11c0.03,0.06,0.05,0.11,0.07,0.16c0.08,0.56,0.11,1.18,0.11,1.86c0,0.68-0.03,1.05-0.09,1.09h-0.05
				c-0.03-0.18-0.11-0.4-0.23-0.66c-0.12-0.26-0.31-0.52-0.56-0.8c-0.25-0.27-0.56-0.55-0.94-0.83c-0.38-0.28-0.84-0.54-1.39-0.78
				c-0.61-0.27-1.39-0.41-2.36-0.41c-1.64,0-2.98,0.55-4.02,1.64c-1.12,1.18-1.68,2.8-1.68,4.86v0.14c0.01,1.97,0.61,3.56,1.77,4.77
				c1.15,1.21,2.63,1.82,4.43,1.82c0.92,0,1.79-0.17,2.59-0.5c0.76-0.32,1.14-0.64,1.14-0.95l-0.05-2.73c0-0.61-0.11-1.08-0.33-1.42
				c-0.22-0.34-0.53-0.54-0.92-0.6v-0.02h4.48v0.02C998.77,119.18,998.46,119.38,998.24,119.72z"/>
			<path class="st1" d="M1018.12,111.52c-0.39,0.06-0.7,0.26-0.92,0.6c-0.22,0.34-0.33,0.81-0.33,1.42l0.05,8.07
				c0,1.68,0.02,3.04,0.07,4.07c0,0.27-0.05,0.46-0.14,0.57h-0.2c-1.38-1.41-5.22-5.05-11.53-10.93l-0.07,6.93v1.73
				c0,0.61,0.11,1.08,0.33,1.42c0.22,0.34,0.53,0.54,0.92,0.6v0.02h-3.77v-0.02c0.39-0.06,0.7-0.26,0.92-0.6
				c0.22-0.34,0.33-0.81,0.33-1.42v-2l0.07-8.34c0-0.99-0.02-1.71-0.05-2.18h0.07l11.41,10.37c0.12,0.14,0.2,0.2,0.25,0.2
				c0.06,0,0.09-0.1,0.09-0.3l-0.02-8.18c0-0.61-0.11-1.08-0.33-1.42c-0.22-0.34-0.53-0.54-0.92-0.6v-0.02h3.77V111.52z"/>
		</g>
		<g>
			<path class="st0" d="M221.24,130.07c-3.67-5.75-17.05-26.41-40.14-61.99l0.15,37.46v11.3c0,3.96,0.72,7.06,2.16,9.29
				c1.43,2.23,3.44,3.54,6.02,3.94v0.15h-24.68v-0.15c2.58-0.39,4.58-1.71,6.02-3.94c1.44-2.23,2.16-5.33,2.16-9.29v-13.08
				l0.45-54.56c0-6.44-0.1-11.2-0.3-14.27h0.45l51.73,74.33c6.54-9.22,24.23-33.75,53.07-73.59v0.15h0.15l-0.15,0.3l0.15,80.42
				c0,3.96,0.72,7.06,2.16,9.29c1.44,2.23,3.44,3.54,6.02,3.94v0.15l-12.93-0.15h-2.53c-3.96,0-8.57,0.05-13.82,0.15v-0.15
				c2.58-0.39,4.61-1.71,6.1-3.94c1.49-2.23,2.18-5.33,2.08-9.29l-0.59-50.39L221.24,130.07v0.15h-0.15v-0.15H221.24z"/>
			<path class="st0" d="M399.4,88.97c-1.44,2.23-2.16,5.33-2.16,9.29v19.47c0,2.88-3.72,5.95-11.15,9.22
				c-8.42,3.57-17.84,5.35-28.24,5.35c-15.16,0-27.8-4.51-37.91-13.53c-10.31-9.22-15.46-21.01-15.46-35.38v-1.04
				c0.2-14.17,5.5-26.01,15.91-35.53c10.21-9.41,22.54-14.12,37.02-14.12c10.31,0,18.93,1.24,25.87,3.72
				c4.16,1.49,6.99,2.92,8.47,4.31l0.74,0.74c0.2,0.4,0.35,0.74,0.45,1.04c0.49,3.67,0.74,7.73,0.74,12.19
				c0,4.46-0.2,6.84-0.59,7.14h-0.3c-0.2-1.19-0.69-2.62-1.49-4.31c-0.79-1.68-2.01-3.42-3.64-5.2c-1.64-1.78-3.69-3.59-6.17-5.43
				c-2.48-1.83-5.5-3.54-9.07-5.13c-3.97-1.78-9.12-2.68-15.46-2.68c-10.7,0-19.47,3.57-26.31,10.7c-7.34,7.73-11,18.34-11,31.81
				v0.89c0.1,12.88,3.96,23.29,11.6,31.22c7.53,7.93,17.19,11.89,28.99,11.89c6.04,0,11.69-1.09,16.95-3.27
				c4.95-2.08,7.43-4.16,7.43-6.24l-0.3-17.84c0-3.96-0.72-7.06-2.16-9.29c-1.44-2.23-3.44-3.54-6.02-3.94v-0.15h29.28v0.15
				C402.84,85.42,400.84,86.74,399.4,88.97z"/>
			<path class="st0" d="M559.43,103.01c0.39,0.3,0.59,2.68,0.59,7.14c0,4.46-0.25,8.52-0.74,12.19c-0.1,0.3-0.25,0.65-0.45,1.04
				l-0.74,0.74c-1.49,1.39-4.31,2.82-8.47,4.31c-6.94,2.48-15.56,3.72-25.87,3.72c-14.47,0-26.81-4.71-37.02-14.12
				c-10.41-9.41-15.71-21.26-15.91-35.53v-0.15c0.2-14.17,5.5-26.01,15.91-35.53c10.21-9.41,22.54-14.12,37.02-14.12
				c10.31,0,18.93,1.24,25.87,3.72c4.16,1.49,6.99,2.92,8.47,4.31l0.74,0.74c0.2,0.4,0.35,0.74,0.45,1.04
				c0.49,3.67,0.74,7.73,0.74,12.19c0,4.46-0.2,6.84-0.59,7.14h-0.3c-0.2-1.19-0.69-2.62-1.49-4.31c-0.79-1.68-2.01-3.42-3.64-5.2
				c-1.64-1.78-3.69-3.59-6.17-5.43c-2.48-1.83-5.5-3.54-9.07-5.13c-3.97-1.78-9.12-2.68-15.46-2.68c-10.7,0-19.47,3.57-26.31,10.7
				c-7.34,7.73-11,18.34-11,31.81v0.74v0.15v0.74c0,13.48,3.67,24.08,11,31.81c6.84,7.14,15.61,10.7,26.31,10.7
				c6.34,0,11.5-0.89,15.46-2.68c3.57-1.58,6.59-3.29,9.07-5.13c2.48-1.83,4.53-3.64,6.17-5.43c1.64-1.78,2.85-3.52,3.64-5.2
				c0.79-1.68,1.29-3.12,1.49-4.31H559.43z"/>
			<path class="st0" d="M578.45,104.06c2.58-0.49,4.06-2.48,4.46-5.95v-0.45c0.1-0.1,0.15-0.49,0.15-1.19V57.53
				c0-4.46-1.59-6.99-4.76-7.58l21.26-0.3c4.56,0.1,8.27,1.09,11.15,2.97c3.37,2.18,5.05,5.4,5.05,9.66
				c0,5.65-3.57,10.46-10.7,14.42c-0.79,0.2-1.29,0.45-1.49,0.74c11,16.05,21.65,24.78,31.96,26.16l2.97,0.45l-13.68,0.15
				c-5.55,0-10.41-2.43-14.57-7.28c-5.95-7.53-10.75-13.53-14.42-17.99c-2.48,0-4.36,0.15-5.65,0.45l0.15,17.1
				c0,4.46,1.58,6.99,4.76,7.58H578.45z M607.29,62.88c0-3.67-0.94-6.29-2.82-7.88c-1.98-1.68-4.96-2.53-8.92-2.53
				c-3.27,0-4.96,0.5-5.05,1.49v0.89l-0.3,20.66h3.42c4.76,0,8.22-1.21,10.41-3.64C606.2,69.44,607.29,66.44,607.29,62.88z"/>
			<path class="st0" d="M682.36,104.5c-0.3,0.1-0.89,0.15-1.78,0.15c-4.36-0.3-9.86-0.45-16.5-0.45c-2.48,0-5.33,0-8.55,0
				c-3.22,0-6.91,0.05-11.08,0.15c3.17-0.49,4.76-3.02,4.76-7.58v-38.8c0-4.56-1.59-7.08-4.76-7.58v-0.15h15.46
				c2.18,0,4.24-0.02,6.17-0.07c1.93-0.05,3.79-0.12,5.57-0.22h0.59c1.29,0,2.5-0.02,3.64-0.07c1.14-0.05,2.25-0.12,3.34-0.22
				c1.78-0.1,2.68,0.05,2.68,0.45v8.62c-0.2-1.58-1.21-2.72-3.05-3.42c-1.84-0.69-5.38-1.24-10.63-1.64
				c-1.19-0.1-2.6-0.15-4.24-0.15c-1.64,0-3.49,0-5.57,0c-0.89,0-1.49,0.15-1.78,0.45c-0.1,0.1-0.15,0.55-0.15,1.34v17.39
				c0,0.59,0.39,0.89,1.19,0.89c0.69,0,2.35,0,4.98,0c2.63,0,6.27,0.05,10.93,0.15c2.28,0,3.94-0.52,4.98-1.56
				c1.04-1.04,1.66-2.25,1.86-3.64h0.15c-0.1,2.18-0.1,6.74,0,13.68c-0.59-3.17-3.12-4.76-7.58-4.76c-1.78-0.1-3.99-0.17-6.62-0.22
				c-2.63-0.05-5.67-0.07-9.14-0.07c-0.5,0-0.74,0.2-0.74,0.59v18.14c0,2.58,1.49,4.16,4.46,4.76c0.49,0.1,3.07,0.15,7.73,0.15
				c2.08,0,3.87-0.2,5.35-0.59c3.47-0.89,6-1.93,7.58-3.12c1.58-1.19,2.63-2.48,3.12-3.87l-1.64,10.85l-0.15,0.59L682.36,104.5z"/>
			<path class="st0" d="M703.02,104.06h-10.26v-0.15c1.29-0.2,2.3-0.82,3.05-1.86c0.74-1.04,1.51-2.1,2.3-3.2
				c0.89-1.09,2.82-4.85,5.8-11.3c1.58-3.37,2.95-6.32,4.09-8.85c1.14-2.53,2.1-4.73,2.9-6.62c4.16-10.11,7.73-19.18,10.7-27.2
				c3.77,9.02,7.51,17.82,11.22,26.39c3.72,8.57,7.46,16.97,11.22,25.2c0.89,2.28,1.98,4.04,3.27,5.28
				c1.29,1.24,2.68,1.96,4.16,2.16v0.3H738.4c-1.29-3.17-2.4-6-3.34-8.47c-0.94-2.48-1.76-4.61-2.45-6.39h-24.23L703.02,104.06z
				 M730.97,85.47c-0.1-0.2-1.02-2.4-2.75-6.62c-1.74-4.21-4.34-10.48-7.8-18.81l-10.7,26.01h21.56L730.97,85.47z"/>
			<path class="st0" d="M810.95,49.35c-0.1,2.68-0.15,5.13-0.15,7.36s0,4.29,0,6.17h-0.45c-2.58-3.77-4.71-6.29-6.39-7.58
				c-2.18-1.58-6-2.38-11.45-2.38h-3.12c-0.99,0.1-1.59,0.35-1.78,0.74c-0.1,0.1-0.15,0.35-0.15,0.74v41.77
				c0,1.59,0.39,2.92,1.19,4.01c1.29,1.69,2.97,2.82,5.05,3.42l0.15,0.15c-0.2,0.2-0.89,0.3-2.08,0.3c-7.34-0.3-12.98-0.3-16.95,0
				c-0.79,0-1.34-0.15-1.64-0.45c1.88-0.1,3.49-0.77,4.83-2.01c1.34-1.24,2.06-2.7,2.16-4.39V54.4c0-0.59-0.3-1.04-0.89-1.34h-4.46
				c-5.45,0-9.27,0.79-11.45,2.38c-1.69,1.29-3.82,3.82-6.39,7.58h-0.45c0-1.88,0-3.94,0-6.17s-0.05-4.68-0.15-7.36l23.34,0.15
				L810.95,49.35z"/>
			<path class="st0" d="M836.96,49.2c-1.49,0.2-2.73,0.69-3.72,1.49c-0.99,0.79-1.88,1.84-2.68,3.12v42.66
				c0,1.59,0.39,2.92,1.19,4.01c1.29,1.69,2.97,2.82,5.05,3.42l0.15,0.15c-0.2,0.2-0.89,0.3-2.08,0.3c-7.34-0.3-12.98-0.3-16.95,0
				c-0.89,0-1.49-0.15-1.78-0.45c1.98-0.1,3.62-0.77,4.91-2.01c1.29-1.24,2.03-2.7,2.23-4.39V56.34c0-0.99-0.25-1.98-0.74-2.97
				c-0.5-1.09-1.11-2.06-1.86-2.9c-0.74-0.84-1.56-1.26-2.45-1.26c0.3-0.1,3.47-0.15,9.51-0.15
				C833.79,49.05,836.86,49.1,836.96,49.2z"/>
			<path class="st0" d="M904.45,78.34c0,8.13-2.97,14.92-8.92,20.37c-5.75,5.45-12.74,8.18-20.96,8.18
				c-8.62,0-15.71-2.58-21.26-7.73c-5.85-5.25-8.77-12.09-8.77-20.51c0-8.12,2.97-14.96,8.92-20.51c5.75-5.45,12.78-8.18,21.11-8.18
				c8.52,0,15.61,2.68,21.26,8.03C901.58,63.32,904.45,70.11,904.45,78.34z M895.98,79.82c0-8.03-2.23-14.37-6.69-19.03
				c-4.16-4.56-9.71-6.84-16.65-6.84c-2.88,0-5.5,0.57-7.88,1.71c-2.38,1.14-4.44,2.7-6.17,4.68c-1.74,1.98-3.1,4.41-4.09,7.28
				c-0.99,2.88-1.49,6-1.49,9.37c0,8.23,2.13,14.67,6.39,19.33c4.16,4.46,9.81,6.69,16.95,6.69c5.75,0,10.45-2.13,14.12-6.39
				C894.14,92.36,895.98,86.76,895.98,79.82z"/>
			<path class="st0" d="M968.37,56.63l0.15,30.18c0,3.17,0.02,6,0.07,8.47c0.05,2.48,0.12,4.71,0.22,6.69c0,0.99-0.2,1.69-0.6,2.08
				h-0.89c-2.58-2.58-7.43-7.26-14.57-14.05c-7.14-6.79-16.6-15.68-28.39-26.68l-0.15,25.87v6.39c0,4.56,1.54,7.09,4.61,7.58v0.15
				h-14.12v-0.15c3.17-0.49,4.76-3.02,4.76-7.58v-7.43l0.3-31.22c0-1.88,0-3.49,0-4.83c0-1.34-0.05-2.45-0.15-3.34h0.15l42.52,38.8
				c0.49,0.5,0.84,0.74,1.04,0.74c0.2,0,0.3-0.35,0.3-1.04V56.63c0-4.46-1.59-6.99-4.76-7.58h14.12
				C969.91,49.65,968.37,52.17,968.37,56.63z"/>
			<path class="st0" d="M1014.31,80.86c2.48,2.48,3.81,5.35,4.01,8.62c0.1,0.99,0.02,2.18-0.22,3.57c-0.25,1.39-0.77,2.68-1.56,3.87
				c-0.79,1.29-1.74,2.48-2.82,3.57c-1.09,1.09-2.03,1.78-2.82,2.08c-3.47,1.98-7.93,2.73-13.38,2.23
				c-6.84-0.59-11.2-1.93-13.08-4.01V89.93c0.1,0.1,0.15,0.17,0.15,0.22c0,0.05,0.05,0.13,0.15,0.22c1.98,3.47,4.16,6.09,6.54,7.88
				c2.28,1.69,4.95,2.68,8.03,2.97c5.75,0.5,9.46-0.84,11.15-4.01c0-0.2,0.15-0.54,0.45-1.04c0.2-0.69,0.39-1.73,0.6-3.12
				c0.1-2.48-0.65-4.61-2.23-6.39c-1.78-1.88-5.05-4.36-9.81-7.43c-6.34-4.06-10.46-7.18-12.34-9.37c-2.38-2.68-3.42-5.85-3.12-9.51
				c0.2-3.86,1.98-6.99,5.35-9.37c3.37-2.38,7.58-3.37,12.64-2.97c3.37,0.3,6.54,0.99,9.51,2.08c2.68,1.09,3.91,2.08,3.72,2.97
				c0,0.2,0,1.12,0,2.75c0,1.64,0.05,3.89,0.15,6.76c0.39,0.79-0.2,0-1.78-2.38c-1.29-2.18-3.02-4.11-5.2-5.8
				c-1.88-1.49-4.51-2.38-7.88-2.68c-2.88-0.2-5.2,0.3-6.99,1.49c-1.78,1.19-2.73,3.02-2.82,5.5c-0.2,2.48,0.49,4.56,2.08,6.24
				c1.39,1.69,4.21,3.82,8.47,6.39c3.17,1.88,5.85,3.62,8.03,5.2C1011.43,78.14,1013.12,79.58,1014.31,80.86z"/>
		</g>
	</g>
</g>
</svg>
