<?xml version="1.0" encoding="utf-8"?>
<!-- Generator: Adobe Illustrator 23.0.0, SVG Export Plug-In . SVG Version: 6.00 Build 0)  -->
<svg version="1.1" id="Layer_1" xmlns="http://www.w3.org/2000/svg" xmlns:xlink="http://www.w3.org/1999/xlink" x="0px" y="0px"
	 viewBox="0 0 151 62" style="enable-background:new 0 0 151 62;" xml:space="preserve">
<style type="text/css">
	.st0{fill:#488FCD;}
</style>
<g>
	<path class="st0" d="M18,48.4h-3.4v-1.2h8.1v1.2h-3.4v9.8H18L18,48.4L18,48.4z"/>
	<path class="st0" d="M23.6,54.6c0,1.9,1.3,2.8,2.7,2.8c1,0,1.6-0.2,2.2-0.4l0.3,1c-0.5,0.2-1.4,0.5-2.6,0.5c-2.4,0-3.9-1.6-3.9-4
		s1.4-4.3,3.7-4.3c2.6,0,3.3,2.3,3.3,3.7c0,0.3,0,0.5,0,0.7C29.2,54.6,23.6,54.6,23.6,54.6z M27.9,53.5c0-0.9-0.4-2.3-2-2.3
		c-1.5,0-2.1,1.3-2.2,2.3H27.9z"/>
	<path class="st0" d="M31,52.5c0-0.8,0-1.5-0.1-2.1h1.3l0.1,1.3h0c0.4-0.8,1.2-1.5,2.5-1.5c1.1,0,1.9,0.7,2.2,1.6h0
		c0.3-0.4,0.6-0.8,0.9-1c0.5-0.4,1-0.6,1.8-0.6c1,0,2.6,0.7,2.6,3.4v4.7h-1.4v-4.5c0-1.5-0.6-2.4-1.7-2.4c-0.8,0-1.5,0.6-1.7,1.3
		c-0.1,0.2-0.1,0.5-0.1,0.7v4.9H36v-4.7c0-1.3-0.6-2.2-1.7-2.2c-0.9,0-1.5,0.7-1.8,1.4c-0.1,0.2-0.1,0.5-0.1,0.7v4.8H31L31,52.5
		L31,52.5z"/>
	<path class="st0" d="M44.7,52.9c0-1,0-1.8-0.1-2.6h1.3l0.1,1.4h0c0.6-1,1.5-1.5,2.8-1.5c1.9,0,3.3,1.6,3.3,4c0,2.8-1.7,4.3-3.6,4.3
		c-1,0-2-0.5-2.4-1.2h0v4.3h-1.4C44.7,61.5,44.7,52.9,44.7,52.9z M46.1,55c0,0.2,0,0.4,0.1,0.6c0.3,1,1.1,1.7,2.2,1.7
		c1.5,0,2.4-1.2,2.4-3.1c0-1.6-0.8-2.9-2.3-2.9c-1,0-1.9,0.7-2.2,1.8c0,0.2-0.1,0.4-0.1,0.6C46.1,53.7,46.1,55,46.1,55z"/>
	<path class="st0" d="M54,46.6h1.4v11.6H54V46.6z"/>
	<path class="st0" d="M62.2,58.2l-0.1-1h0c-0.4,0.6-1.3,1.2-2.4,1.2c-1.6,0-2.4-1.1-2.4-2.3c0-1.9,1.7-3,4.8-2.9v-0.2
		c0-0.7-0.2-1.8-1.8-1.8c-0.7,0-1.5,0.2-2.1,0.6l-0.3-1c0.7-0.4,1.6-0.7,2.6-0.7c2.4,0,3,1.7,3,3.2v3c0,0.7,0,1.4,0.1,1.9L62.2,58.2
		L62.2,58.2z M62,54.2c-1.6,0-3.3,0.3-3.3,1.8c0,0.9,0.6,1.4,1.4,1.4c1,0,1.7-0.7,1.9-1.3c0-0.2,0.1-0.3,0.1-0.5
		C62,55.6,62,54.2,62,54.2z"/>
	<path class="st0" d="M67.3,48.1v2.3h2.1v1.1h-2.1v4.3c0,1,0.3,1.5,1.1,1.5c0.4,0,0.7,0,0.8-0.1l0.1,1.1c-0.3,0.1-0.7,0.2-1.3,0.2
		c-0.7,0-1.2-0.2-1.6-0.6c-0.4-0.4-0.6-1.1-0.6-2.1v-4.3h-1.2v-1.1H66v-1.9L67.3,48.1z"/>
	<path class="st0" d="M71.7,54.6c0,1.9,1.3,2.8,2.7,2.8c1,0,1.7-0.2,2.2-0.4l0.3,1c-0.5,0.2-1.4,0.5-2.6,0.5c-2.4,0-3.9-1.6-3.9-4
		s1.4-4.3,3.7-4.3c2.6,0,3.3,2.3,3.3,3.7c0,0.3,0,0.5-0.1,0.7C77.3,54.6,71.7,54.6,71.7,54.6z M75.9,53.5c0-0.9-0.4-2.3-2-2.3
		c-1.4,0-2.1,1.3-2.2,2.3H75.9z"/>
	<path class="st0" d="M91.9,53.4c-0.1-1.5-0.2-3.4-0.2-4.8h-0.1c-0.4,1.3-0.8,2.7-1.4,4.2l-1.9,5.3h-1.1l-1.8-5.3
		c-0.5-1.5-1-3-1.3-4.3h0c0,1.4-0.1,3.2-0.2,4.9l-0.3,4.7h-1.4l0.8-11h1.8l1.9,5.3c0.5,1.4,0.8,2.6,1.1,3.7H88
		c0.3-1.1,0.7-2.3,1.2-3.7l2-5.3h1.8l0.7,11h-1.4L91.9,53.4z"/>
	<path class="st0" d="M103,54.2c0,2.9-2,4.2-3.9,4.2c-2.1,0-3.8-1.6-3.8-4.1c0-2.7,1.7-4.2,3.9-4.2C101.4,50.2,103,51.8,103,54.2z
		 M96.7,54.3c0,1.7,1,3,2.4,3c1.4,0,2.4-1.3,2.4-3.1c0-1.3-0.7-3-2.4-3C97.4,51.2,96.7,52.8,96.7,54.3z"/>
	<path class="st0" d="M110.4,58c-0.4,0.2-1.2,0.5-2.3,0.5c-2.4,0-3.9-1.6-3.9-4c0-2.4,1.7-4.2,4.3-4.2c0.8,0,1.6,0.2,2,0.4l-0.3,1.1
		c-0.3-0.2-0.9-0.4-1.7-0.4c-1.8,0-2.8,1.3-2.8,3c0,1.8,1.2,3,2.8,3c0.8,0,1.4-0.2,1.8-0.4L110.4,58z"/>
	<path class="st0" d="M113.5,54L113.5,54c0.2-0.3,0.5-0.6,0.7-0.9l2.3-2.7h1.7l-3.1,3.3l3.5,4.7H117l-2.7-3.8l-0.7,0.8v3h-1.4V46.6
		h1.4L113.5,54L113.5,54z"/>
	<path class="st0" d="M126.5,56.1c0,0.8,0,1.5,0.1,2.2h-1.3l-0.1-1.3h0c-0.4,0.6-1.2,1.5-2.6,1.5c-1.2,0-2.7-0.7-2.7-3.5v-4.6h1.4
		v4.4c0,1.5,0.5,2.5,1.8,2.5c1,0,1.6-0.7,1.9-1.3c0.1-0.2,0.1-0.5,0.1-0.7v-4.8h1.4L126.5,56.1L126.5,56.1z"/>
	<path class="st0" d="M128.9,52.9c0-1,0-1.8-0.1-2.6h1.3l0.1,1.4h0c0.6-1,1.5-1.5,2.8-1.5c1.9,0,3.4,1.6,3.4,4
		c0,2.8-1.7,4.3-3.6,4.3c-1.1,0-2-0.5-2.4-1.2h0v4.3h-1.4V52.9z M130.3,55c0,0.2,0,0.4,0.1,0.6c0.3,1,1.1,1.7,2.2,1.7
		c1.5,0,2.4-1.2,2.4-3.1c0-1.6-0.8-2.9-2.4-2.9c-1,0-1.9,0.7-2.2,1.8c-0.1,0.2-0.1,0.4-0.1,0.6L130.3,55L130.3,55z"/>
</g>
<g>
	<path class="st0" d="M124.4,14.5c-0.3-0.1-0.7-0.2-1.4-0.2v16c0.9,0,1.5-0.2,1.7-0.5s0.3-1.4,0.3-3v-9.5c0-1.1,0-1.8-0.1-2.1
		C124.8,14.9,124.7,14.6,124.4,14.5z"/>
	<path class="st0" d="M97.5,14.3v5.4c0.7,0,1.2-0.1,1.5-0.3s0.4-0.8,0.4-1.9v-1.3c0-0.8-0.1-1.3-0.4-1.5
		C98.8,14.4,98.3,14.3,97.5,14.3z"/>
	<path class="st0" d="M129.2,1.1H21.8c-11.7,0-21.1,9.5-21.1,21.1l0,0c0,11.7,9.5,21.2,21.1,21.2h107.5c11.7,0,21.1-9.5,21.1-21.1
		l0,0C150.4,10.6,140.9,1.1,129.2,1.1z M34.6,20.7h-6.3v-4.2c0-1.2-0.1-2-0.2-2.3c-0.1-0.3-0.4-0.5-0.9-0.5c-0.5,0-0.9,0.2-1,0.6
		C26,14.6,26,15.4,26,16.7V28c0,1.2,0.1,2,0.2,2.3c0.1,0.4,0.5,0.5,1,0.5c0.5,0,0.8-0.2,0.9-0.5s0.2-1.2,0.2-2.5v-3.1h6.3v1
		c0,2.5-0.2,4.3-0.5,5.4c-0.4,1.1-1.1,2-2.4,2.8C30.5,34.6,29,35,27.2,35c-1.9,0-3.4-0.3-4.6-1s-2-1.6-2.4-2.8
		c-0.4-1.2-0.6-3-0.6-5.4v-7.1c0-1.8,0.1-3.1,0.2-3.9s0.5-1.7,1.1-2.5c0.6-0.8,1.4-1.4,2.5-1.9s2.3-0.7,3.6-0.7
		c1.9,0,3.4,0.4,4.6,1.1c1.2,0.7,2,1.6,2.4,2.7s0.6,2.7,0.6,5L34.6,20.7L34.6,20.7z M50.2,32.1c-0.4,0.8-1.2,1.5-2.4,2.1
		c-1.2,0.6-2.5,0.8-4.1,0.8c-1.7,0-3.1-0.3-4.3-1s-2-1.5-2.4-2.5c-0.4-1-0.6-2.4-0.6-4.2v-1.6h5.9v3c0,0.9,0.1,1.5,0.3,1.8
		s0.5,0.4,0.9,0.4s0.7-0.2,0.9-0.5s0.3-0.8,0.3-1.5c0-1.4-0.2-2.4-0.6-2.8c-0.4-0.4-1.4-1.2-3-2.2c-1.6-1-2.6-1.8-3.1-2.3
		s-0.9-1.1-1.3-2c-0.3-0.8-0.5-1.9-0.5-3.2c0-1.9,0.2-3.2,0.7-4.1c0.5-0.9,1.3-1.5,2.3-2c1.1-0.5,2.3-0.7,3.8-0.7
		c1.7,0,3,0.3,4.2,0.8s1.9,1.2,2.3,2c0.4,0.8,0.6,2.2,0.6,4.1v1h-5.9v-1.8c0-0.8-0.1-1.4-0.2-1.6s-0.4-0.4-0.8-0.4
		c-0.4,0-0.7,0.2-0.9,0.5s-0.3,0.8-0.3,1.4c0,0.8,0.1,1.4,0.3,1.8c0.2,0.4,0.8,0.9,1.8,1.5c2.8,1.7,4.6,3,5.3,4.1
		c0.7,1.1,1.1,2.8,1.1,5.2C50.8,30,50.6,31.2,50.2,32.1z M66.2,32.1c-0.4,0.8-1.2,1.5-2.4,2.1c-1.2,0.6-2.5,0.8-4.1,0.8
		c-1.7,0-3.1-0.3-4.3-1s-2-1.5-2.4-2.5c-0.4-1-0.6-2.4-0.6-4.2v-1.6h5.9v3c0,0.9,0.1,1.5,0.3,1.8s0.5,0.4,0.9,0.4s0.7-0.2,0.9-0.5
		s0.3-0.8,0.3-1.5c0-1.4-0.2-2.4-0.6-2.8c-0.4-0.4-1.4-1.2-3-2.2c-1.6-1-2.6-1.8-3.1-2.3s-0.9-1.1-1.3-2c-0.3-0.8-0.5-1.9-0.5-3.2
		c0-1.9,0.2-3.2,0.7-4.1c0.5-0.9,1.3-1.5,2.3-2c1.1-0.5,2.3-0.7,3.8-0.7c1.7,0,3,0.3,4.2,0.8c1.2,0.5,1.9,1.2,2.3,2
		c0.4,0.8,0.6,2.2,0.6,4.1v1h-5.9v-1.8c0-0.8-0.1-1.4-0.2-1.6s-0.4-0.4-0.8-0.4c-0.4,0-0.7,0.2-0.9,0.5s-0.3,0.8-0.3,1.4
		c0,0.8,0.1,1.4,0.3,1.8c0.2,0.4,0.8,0.9,1.8,1.5c2.8,1.7,4.6,3,5.3,4.1c0.7,1.1,1.1,2.8,1.1,5.2C66.8,30,66.6,31.2,66.2,32.1z
		 M88.8,19.1h-6.3v-2.2c0-1.4-0.1-2.3-0.2-2.6s-0.4-0.5-0.9-0.5c-0.4,0-0.7,0.1-0.8,0.4s-0.2,1.1-0.2,2.3v11.7
		c0,1.1,0.1,1.8,0.2,2.2s0.4,0.5,0.8,0.5c0.5,0,0.8-0.2,0.9-0.6c0.2-0.4,0.3-1.1,0.3-2.3v-2.9h-1.3v-3.7h7.4v13.1h-4l-0.6-1.8
		c-0.4,0.8-1,1.3-1.6,1.7c-0.7,0.4-1.4,0.6-2.3,0.6c-1.1,0-2.1-0.3-3-0.8s-1.6-1.2-2.1-1.9c-0.5-0.8-0.8-1.6-0.9-2.4
		S74,27.8,74,26.1v-7.2c0-2.3,0.1-4,0.4-5.1s1-2,2.2-2.9c1.2-0.9,2.7-1.3,4.6-1.3c1.9,0,3.4,0.4,4.6,1.1s2,1.7,2.4,2.7
		s0.6,2.6,0.6,4.6L88.8,19.1L88.8,19.1z M104.4,23c0.4,0.5,0.7,1,0.8,1.4s0.2,1.6,0.2,3.6v6.4h-5.9v-8.1c0-1.3-0.1-2.1-0.3-2.4
		s-0.7-0.5-1.6-0.5v11h-6.3V10.1h4.5c3,0,5,0.1,6.1,0.4s1.9,0.8,2.6,1.8c0.7,0.9,1,2.5,1,4.5c0,1.9-0.2,3.2-0.7,3.8s-1.4,1-2.8,1.2
		C103.1,22.1,103.9,22.5,104.4,23z M114.1,34.5h-6.3V10.1h6.3V34.5z M131.4,27.2c0,2.2-0.1,3.6-0.3,4.4c-0.2,0.7-0.6,1.3-1.1,1.7
		c-0.5,0.4-1.1,0.7-1.9,0.9c-0.8,0.2-1.9,0.3-3.4,0.3h-8V10.1h4.7c3.1,0,5.1,0.1,6.2,0.4s1.9,0.7,2.5,1.4c0.6,0.6,0.9,1.4,1.1,2.2
		c0.1,0.8,0.2,2.3,0.2,4.6L131.4,27.2L131.4,27.2z"/>
</g>
</svg>
