<?xml version="1.0" encoding="utf-8"?>
<!-- Generator: Adobe Illustrator 23.0.0, SVG Export Plug-In . SVG Version: 6.00 Build 0)  -->
<svg version="1.1" id="Layer_1" xmlns="http://www.w3.org/2000/svg" xmlns:xlink="http://www.w3.org/1999/xlink" x="0px" y="0px"
	 viewBox="0 0 300 300" style="enable-background:new 0 0 300 300;" xml:space="preserve">
<style type="text/css">
	.st0{fill:#FFFFFF;}
</style>
<g>
	<path class="st0" d="M211.57,211.88l42.27-149.39l23.88-0.2c9.31-0.08,16.79-7.69,16.71-17l-0.03-3.94
		c-0.01-1.66-1.37-2.99-3.03-2.97l-49,0.42c-3.91,0.03-7.33,2.65-8.39,6.41l-5.53,19.62c-0.54,1.93-2.31,3.27-4.32,3.27H11.52
		c-3.29,0-5.95,2.66-5.95,5.95v5.95c0,6.57,5.33,11.9,11.9,11.9l197.1,0.01c3.12,0,5.38,2.98,4.53,5.98v0
		c-0.57,2.03-2.41,3.42-4.52,3.42c-24.1,0-163.7,0-194.33,0c-3.29,0-5.94,2.66-5.94,5.95v5.95c0,6.57,5.33,11.89,11.9,11.89
		l179.61-0.15c2.82,0,4.85,2.69,4.09,5.4l-0.03,0.1c-0.53,1.89-2.22,3.17-4.16,3.16c-21.97-0.07-148.44-0.07-177.48-0.07
		c-3.29,0-5.94,2.66-5.94,5.95v5.95c0,6.57,5.32,11.9,11.89,11.9l164.62,0.06c3.84,0,6.62,3.68,5.57,7.37l-6.68,23.61
		c-0.71,2.5-2.99,4.22-5.58,4.22l-134.8-0.06c-8,0-14.49,6.48-14.49,14.48v2.83c0,3.58,2.9,6.48,6.48,6.48l156.36,0.01
		C208.42,216.33,210.82,214.51,211.57,211.88z"/>
	<circle class="st0" cx="77.61" cy="240.99" r="20.64"/>
	<circle class="st0" cx="179.86" cy="240.99" r="20.64"/>
</g>
</svg>
