<?xml version="1.0" encoding="utf-8"?>
<!-- Generator: Adobe Illustrator 23.0.0, SVG Export Plug-In . SVG Version: 6.00 Build 0)  -->
<svg version="1.1" id="Layer_1" xmlns="http://www.w3.org/2000/svg" xmlns:xlink="http://www.w3.org/1999/xlink" x="0px" y="0px"
	 viewBox="0 0 300 300" style="enable-background:new 0 0 300 300;" xml:space="preserve">
<style type="text/css">
	.st0{fill:none;}
	.st1{fill:#FFFFFF;}
</style>
<g>
	<circle class="st0" cx="48.05" cy="209.7" r="5.35"/>
	<path class="st0" d="M74.97,105.8H21.14c-4.48,0-8.12,3.63-8.12,8.12v77.65c0,4.48,3.63,8.12,8.12,8.12h53.83
		c0.36,0,0.71-0.03,1.06-0.07v-27.75c0-4.43,2.99-8.17,7.06-9.32v-48.62C83.09,109.43,79.45,105.8,74.97,105.8z"/>
	<path class="st1" d="M74.97,199.67H21.14c-4.48,0-8.12-3.63-8.12-8.12v-77.65c0-4.48,3.63-8.12,8.12-8.12h53.83
		c4.48,0,8.12,3.63,8.12,8.12v48.62c0.83-0.24,1.71-0.36,2.62-0.36h6.61v-57.48c0-4.48-3.63-8.12-8.12-8.12H11.9
		c-4.48,0-8.12,3.63-8.12,8.12v108.45c0,4.48,3.63,8.12,8.12,8.12h64.12V199.6C75.68,199.65,75.33,199.67,74.97,199.67z
		 M48.05,215.04c-2.95,0-5.35-2.39-5.35-5.35c0-2.95,2.39-5.35,5.35-5.35s5.35,2.39,5.35,5.35
		C53.4,212.65,51.01,215.04,48.05,215.04z"/>
	<path class="st0" d="M127.91,171.86v1.51h148.58c3.26,0,5.9-2.64,5.9-5.9V81.39c0-3.26-2.64-5.9-5.9-5.9h-159.6
		c-3.26,0-5.9,2.64-5.9,5.9v80.78h7.24C123.57,162.17,127.91,166.52,127.91,171.86z"/>
	<path class="st1" d="M290.31,60.98H103.08c-3.26,0-5.9,2.64-5.9,5.9v95.29h13.82V81.39c0-3.26,2.64-5.9,5.9-5.9h159.6
		c3.26,0,5.9,2.64,5.9,5.9v86.07c0,3.26-2.64,5.9-5.9,5.9H127.91v30h59.99v16.48h-36.89c-2.51,0-4.55,2.04-4.55,4.55
		s2.04,4.55,4.55,4.55h91.36c2.51,0,4.55-2.04,4.55-4.55s-2.04-4.55-4.55-4.55h-36.89v-16.48h84.82c3.26,0,5.9-2.64,5.9-5.9V66.88
		C296.21,63.62,293.57,60.98,290.31,60.98z"/>
	<path class="st1" d="M118.23,167.71H85.71c-2.29,0-4.15,1.86-4.15,4.15v63.02c0,2.29,1.86,4.15,4.15,4.15h32.52
		c2.29,0,4.15-1.86,4.15-4.15v-63.02C122.38,169.56,120.52,167.71,118.23,167.71z M118.02,222.08c0,2.29-1.86,4.15-4.15,4.15H90.07
		c-2.29,0-4.15-1.86-4.15-4.15v-45c0-2.29,1.86-4.15,4.15-4.15h23.79c2.29,0,4.15,1.86,4.15,4.15V222.08z"/>
</g>
</svg>
